<?xml version="1.0" standalone="yes"?>

<svg version="1.1" viewBox="0.0 0.0 746.7847769028872 208.8057742782152" fill="none" stroke="none" stroke-linecap="square" stroke-miterlimit="10" xmlns="http://www.w3.org/2000/svg" xmlns:xlink="http://www.w3.org/1999/xlink"><clipPath id="p.0"><path d="m0 0l746.7848 0l0 208.80577l-746.7848 0l0 -208.80577z" clip-rule="nonzero"></path></clipPath><g clip-path="url(#p.0)"><path fill="#000000" fill-opacity="0.0" d="m0 0l746.7848 0l0 208.80577l-746.7848 0z" fill-rule="evenodd"></path><path fill="#000000" fill-opacity="0.0" d="m329.56168 103.43438l54.173218 -81.25984" fill-rule="evenodd"></path><path stroke="#ffd966" stroke-width="2.0" stroke-linejoin="round" stroke-linecap="butt" d="m329.56168 103.43438l47.516815 -71.27524" fill-rule="evenodd"></path><path fill="#ffd966" stroke="#ffd966" stroke-width="2.0" stroke-linecap="butt" d="m379.82715 33.991577l2.2859192 -9.384283l-7.783203 5.7194176z" fill-rule="evenodd"></path><path fill="#000000" fill-opacity="0.0" d="m329.56168 103.43438l54.173218 -27.086609" fill-rule="evenodd"></path><path stroke="#ffd966" stroke-width="2.0" stroke-linejoin="round" stroke-linecap="butt" d="m329.56168 103.43438l43.440094 -21.720047" fill-rule="evenodd"></path><path fill="#ffd966" stroke="#ffd966" stroke-width="2.0" stroke-linecap="butt" d="m374.47913 84.669044l6.6406555 -7.01371l-9.595367 1.1042862z" fill-rule="evenodd"></path><path fill="#000000" fill-opacity="0.0" d="m329.56168 103.43438l54.173218 27.086617" fill-rule="evenodd"></path><path stroke="#ffd966" stroke-width="2.0" stroke-linejoin="round" stroke-linecap="butt" d="m329.56168 103.43438l43.440094 21.720055" fill-rule="evenodd"></path><path fill="#ffd966" stroke="#ffd966" stroke-width="2.0" stroke-linecap="butt" d="m371.5244 128.10915l9.595367 1.1042786l-6.6406555 -7.0137024z" fill-rule="evenodd"></path><path fill="#000000" fill-opacity="0.0" d="m329.56168 103.43438l54.173218 81.25985" fill-rule="evenodd"></path><path stroke="#ffd966" stroke-width="2.0" stroke-linejoin="round" stroke-linecap="butt" d="m329.56168 103.43438l47.516815 71.275246" fill-rule="evenodd"></path><path fill="#ffd966" stroke="#ffd966" stroke-width="2.0" stroke-linecap="butt" d="m374.32986 176.54205l7.783203 5.7194214l-2.2859192 -9.384277z" fill-rule="evenodd"></path><path fill="#000000" fill-opacity="0.0" d="m521.3937 22.174294l67.71655 27.086617" fill-rule="evenodd"></path><path stroke="#ffd966" stroke-width="2.0" stroke-linejoin="round" stroke-linecap="butt" d="m521.3937 22.174295l56.57483 22.629927" fill-rule="evenodd"></path><path fill="#ffd966" stroke="#ffd966" stroke-width="2.0" stroke-linecap="butt" d="m576.74164 47.87141l9.653931 0.3036232l-7.2001953 -6.4380035z" fill-rule="evenodd"></path><path fill="#000000" fill-opacity="0.0" d="m589.1155 49.258522l-67.71655 81.25985" fill-rule="evenodd"></path><path stroke="#ffd966" stroke-width="2.0" stroke-linejoin="round" stroke-linecap="butt" d="m589.1155 49.258526l-60.0343 72.04118" fill-rule="evenodd"></path><path fill="#ffd966" stroke="#ffd966" stroke-width="2.0" stroke-linecap="butt" d="m526.5434 119.18488l-3.272644 9.087349l8.348206 -4.8576965z" fill-rule="evenodd"></path><path fill="#000000" fill-opacity="0.0" d="m521.3937 130.5155l67.71655 -27.086617" fill-rule="evenodd"></path><path stroke="#ffd966" stroke-width="2.0" stroke-linejoin="round" stroke-linecap="butt" d="m521.3937 130.5155l56.57483 -22.629921" fill-rule="evenodd"></path><path fill="#ffd966" stroke="#ffd966" stroke-width="2.0" stroke-linecap="butt" d="m579.1954 110.95277l7.2001953 -6.4380035l-9.653931 0.30361938z" fill-rule="evenodd"></path><path fill="#000000" fill-opacity="0.0" d="m521.3937 130.5155l67.71655 27.086609" fill-rule="evenodd"></path><path stroke="#ffd966" stroke-width="2.0" stroke-linejoin="round" stroke-linecap="butt" d="m521.3937 130.5155l56.57483 22.629913" fill-rule="evenodd"></path><path fill="#ffd966" stroke="#ffd966" stroke-width="2.0" stroke-linecap="butt" d="m576.74164 156.21262l9.653931 0.30361938l-7.2001953 -6.4380035z" fill-rule="evenodd"></path><path fill="#000000" fill-opacity="0.0" d="m521.3937 184.68611l67.71655 -27.086624" fill-rule="evenodd"></path><path stroke="#ffd966" stroke-width="2.0" stroke-linejoin="round" stroke-linecap="butt" d="m521.3937 184.68611l56.57483 -22.629929" fill-rule="evenodd"></path><path fill="#ffd966" stroke="#ffd966" stroke-width="2.0" stroke-linecap="butt" d="m579.1954 165.12337l7.2001953 -6.4380035l-9.653931 0.30361938z" fill-rule="evenodd"></path><path fill="#000000" fill-opacity="0.0" d="m521.3937 76.344894l67.71655 -27.086609" fill-rule="evenodd"></path><path stroke="#ffd966" stroke-width="2.0" stroke-linejoin="round" stroke-linecap="butt" d="m521.3937 76.3449l56.57483 -22.629929" fill-rule="evenodd"></path><path fill="#ffd966" stroke="#ffd966" stroke-width="2.0" stroke-linecap="butt" d="m579.1954 56.78216l7.2001953 -6.4380035l-9.653931 0.3036232z" fill-rule="evenodd"></path><path fill="#000000" fill-opacity="0.0" d="m589.1155 49.258522l-67.71655 135.43307" fill-rule="evenodd"></path><path stroke="#ffd966" stroke-width="2.0" stroke-linejoin="round" stroke-linecap="butt" d="m589.1155 49.258526l-62.349976 124.69995" fill-rule="evenodd"></path><path fill="#ffd966" stroke="#ffd966" stroke-width="2.0" stroke-linecap="butt" d="m523.8108 172.48112l-1.104248 9.595352l7.013672 -6.6406403z" fill-rule="evenodd"></path><path fill="#000000" fill-opacity="0.0" d="m521.3937 76.344894l67.71655 27.086617" fill-rule="evenodd"></path><path stroke="#ffd966" stroke-width="2.0" stroke-linejoin="round" stroke-linecap="butt" d="m521.3937 76.3449l56.57483 22.629921" fill-rule="evenodd"></path><path fill="#ffd966" stroke="#ffd966" stroke-width="2.0" stroke-linecap="butt" d="m576.74164 102.042015l9.653931 0.303627l-7.2001953 -6.438011z" fill-rule="evenodd"></path><path fill="#fff2cc" d="m4.2362204 84.99362l0 0c0 -5.0909805 4.1270533 -9.218033 9.218032 -9.218033l121.311966 0c2.4447784 0 4.7894135 0.9711838 6.5181274 2.6998978c1.7287292 1.7287216 2.6999054 4.0733643 2.6999054 6.518135l0 36.871025c0 5.090973 -4.12706 9.218025 -9.218033 9.218025l-121.311966 0l0 0c-5.0909786 0 -9.218032 -4.1270523 -9.218032 -9.218025z" fill-rule="evenodd"></path><path stroke="#676767" stroke-width="1.0" stroke-linejoin="round" stroke-linecap="butt" d="m4.2362204 84.99362l0 0c0 -5.0909805 4.1270533 -9.218033 9.218032 -9.218033l121.311966 0c2.4447784 0 4.7894135 0.9711838 6.5181274 2.6998978c1.7287292 1.7287216 2.6999054 4.0733643 2.6999054 6.518135l0 36.871025c0 5.090973 -4.12706 9.218025 -9.218033 9.218025l-121.311966 0l0 0c-5.0909786 0 -9.218032 -4.1270523 -9.218032 -9.218025z" fill-rule="evenodd"></path><path fill="#000000" d="m48.554768 107.28663l-4.625 0l-0.46875 1.15625l0.46875 0q0.6875 0 0.96875 0.265625q0.296875 0.265625 0.296875 0.6875q0 0.421875 -0.296875 0.6875q-0.28125 0.265625 -0.96875 0.265625l-2.5625 0q-0.6875 0 -0.96875 -0.265625q-0.296875 -0.265625 -0.296875 -0.6875q0 -0.421875 0.3125 -0.6875q0.296875 -0.28125 1.0 -0.265625l2.984375 -7.4375l-1.234375 0q-0.6875 0 -0.984375 -0.265625q-0.296875 -0.265625 -0.296875 -0.6875q0 -0.421875 0.296875 -0.6875q0.296875 -0.265625 0.984375 -0.265625l4.109375 0l3.78125 9.34375q0.671875 0 0.875 0.15625q0.4375 0.296875 0.4375 0.796875q0 0.421875 -0.296875 0.6875q-0.28125 0.265625 -0.96875 0.265625l-2.5625 0q-0.6875 0 -0.984375 -0.265625q-0.28125 -0.265625 -0.28125 -0.6875q0 -0.421875 0.28125 -0.6875q0.296875 -0.265625 0.984375 -0.265625l0.46875 0l-0.453125 -1.15625zm-0.796875 -1.90625l-1.53125 -3.765625l-1.53125 3.765625l3.0625 0zm12.633072 -3.109375q0.34375 -0.328125 0.703125 -0.328125q0.40625 0 0.671875 0.296875q0.265625 0.28125 0.265625 0.96875l0 1.21875q0 0.6875 -0.265625 0.984375q-0.265625 0.28125 -0.6875 0.28125q-0.390625 0 -0.671875 -0.21875q-0.1875 -0.171875 -0.296875 -0.6875q-0.109375 -0.515625 -0.546875 -0.765625q-0.75 -0.4375 -1.921875 -0.4375q-1.34375 0 -2.15625 0.78125q-0.8125 0.78125 -0.8125 2.0q0 1.109375 0.78125 1.75q0.78125 0.640625 2.59375 0.640625q1.1875 0 1.9375 -0.234375q0.453125 -0.140625 0.84375 -0.5q0.40625 -0.359375 0.71875 -0.359375q0.390625 0 0.671875 0.296875q0.296875 0.28125 0.296875 0.671875q0 0.625 -0.875 1.1875q-1.28125 0.84375 -3.75 0.84375q-2.203125 0 -3.4375 -0.921875q-1.671875 -1.234375 -1.671875 -3.375q0 -2.03125 1.34375 -3.359375q1.359375 -1.328125 3.546875 -1.328125q0.78125 0 1.453125 0.15625q0.6875 0.140625 1.265625 0.4375zm7.7580757 1.5625l0 3.8125q0 0.609375 0.25 0.796875q0.390625 0.3125 1.390625 0.3125q1.453125 0 2.6875 -0.625q0.46875 -0.234375 0.75 -0.234375q0.359375 0 0.625 0.28125q0.28125 0.265625 0.28125 0.671875q0 0.375 -0.296875 0.640625q-0.453125 0.4375 -1.796875 0.8125q-1.328125 0.359375 -2.25 0.359375q-1.765625 0 -2.65625 -0.765625q-0.890625 -0.765625 -0.890625 -1.890625l0 -4.171875l-0.6875 0q-0.6875 0 -0.984375 -0.265625q-0.28125 -0.265625 -0.28125 -0.703125q0 -0.40625 0.28125 -0.671875q0.296875 -0.265625 0.984375 -0.265625l0.6875 0l0 -1.71875q0 -0.6875 0.265625 -0.96875q0.265625 -0.296875 0.6875 -0.296875q0.421875 0 0.6875 0.296875q0.265625 0.28125 0.265625 0.96875l0 1.71875l3.515625 0q0.6875 0 0.96875 0.265625q0.296875 0.265625 0.296875 0.6875q0 0.421875 -0.296875 0.6875q-0.28125 0.265625 -0.96875 0.265625l-3.515625 0zm12.351822 -5.515625l0 2.015625l-2.265625 0l0 -2.015625l2.265625 0zm0.25 3.609375l0 6.515625l2.28125 0q0.6875 0 0.984375 0.265625q0.296875 0.265625 0.296875 0.6875q0 0.421875 -0.296875 0.6875q-0.296875 0.265625 -0.984375 0.265625l-6.46875 0q-0.6875 0 -0.984375 -0.265625q-0.28125 -0.265625 -0.28125 -0.6875q0 -0.421875 0.28125 -0.6875q0.296875 -0.265625 0.984375 -0.265625l2.28125 0l0 -4.609375l-1.53125 0q-0.671875 0 -0.96875 -0.265625q-0.296875 -0.265625 -0.296875 -0.703125q0 -0.40625 0.296875 -0.671875q0.296875 -0.265625 0.96875 -0.265625l3.4375 0zm15.195572 4.375q0 1.09375 -0.609375 2.125q-0.609375 1.015625 -1.8125 1.625q-1.203125 0.609375 -2.5 0.609375q-1.296875 0 -2.484375 -0.59375q-1.1875 -0.609375 -1.8125 -1.640625q-0.625 -1.03125 -0.625 -2.15625q0 -1.140625 0.625 -2.234375q0.640625 -1.09375 1.8125 -1.71875q1.1875 -0.640625 2.484375 -0.640625q1.296875 0 2.5 0.640625q1.203125 0.640625 1.8125 1.734375q0.609375 1.09375 0.609375 2.25zm-1.90625 0q0 -0.921875 -0.65625 -1.6875q-0.890625 -1.03125 -2.359375 -1.03125q-1.296875 0 -2.15625 0.828125q-0.859375 0.8125 -0.859375 1.90625q0 0.890625 0.859375 1.671875q0.875 0.765625 2.15625 0.765625q1.28125 0 2.140625 -0.765625q0.875 -0.78125 0.875 -1.6875zm6.242447 -4.375l0 0.640625q0.515625 -0.453125 1.140625 -0.671875q0.625 -0.21875 1.359375 -0.21875q1.6875 0 2.671875 1.046875q0.78125 0.828125 0.78125 2.1875l0 3.53125q0.59375 0 0.875 0.265625q0.296875 0.265625 0.296875 0.6875q0 0.421875 -0.296875 0.6875q-0.28125 0.265625 -0.96875 0.265625l-1.71875 0q-0.6875 0 -0.984375 -0.265625q-0.28125 -0.265625 -0.28125 -0.6875q0 -0.421875 0.28125 -0.6875q0.296875 -0.265625 0.890625 -0.265625l0 -3.59375q0 -0.609375 -0.328125 -0.90625q-0.4375 -0.359375 -1.3125 -0.359375q-0.65625 0 -1.15625 0.25q-0.5 0.25 -1.25 1.078125l0 3.53125q0.734375 0 0.9375 0.140625q0.453125 0.28125 0.453125 0.8125q0 0.421875 -0.296875 0.6875q-0.28125 0.265625 -0.96875 0.265625l-2.15625 0q-0.6875 0 -0.984375 -0.265625q-0.296875 -0.265625 -0.296875 -0.6875q0 -0.515625 0.453125 -0.8125q0.21875 -0.140625 0.953125 -0.140625l0 -4.609375q-0.609375 0 -0.890625 -0.265625q-0.28125 -0.28125 -0.28125 -0.703125q0 -0.40625 0.28125 -0.671875q0.296875 -0.265625 0.984375 -0.265625l1.8125 0z" fill-rule="nonzero"></path><path fill="#000000" fill-opacity="0.0" d="m143.98425 103.42913l45.826767 0" fill-rule="evenodd"></path><path stroke="#ffd966" stroke-width="2.0" stroke-linejoin="round" stroke-linecap="butt" d="m143.98425 103.42913l33.826767 0" fill-rule="evenodd"></path><path fill="#ffd966" stroke="#ffd966" stroke-width="2.0" stroke-linecap="butt" d="m177.81102 106.7326l9.076202 -3.3034668l-9.076202 -3.3034592z" fill-rule="evenodd"></path><path fill="#d9ead3" d="m189.81364 84.99887l0 0c0 -5.0909805 4.12706 -9.218033 9.218033 -9.218033l121.31198 0c2.4447632 0 4.789398 0.9711838 6.5181274 2.6998978c1.7286987 1.7287216 2.6998901 4.0733643 2.6998901 6.518135l0 36.871025c0 5.0909805 -4.1270447 9.218025 -9.218018 9.218025l-121.31198 0l0 0c-5.090973 0 -9.218033 -4.1270447 -9.218033 -9.218025z" fill-rule="evenodd"></path><path stroke="#676767" stroke-width="1.0" stroke-linejoin="round" stroke-linecap="butt" d="m189.81364 84.99887l0 0c0 -5.0909805 4.12706 -9.218033 9.218033 -9.218033l121.31198 0c2.4447632 0 4.789398 0.9711838 6.5181274 2.6998978c1.7286987 1.7287216 2.6998901 4.0733643 2.6998901 6.518135l0 36.871025c0 5.0909805 -4.1270447 9.218025 -9.218018 9.218025l-121.31198 0l0 0c-5.090973 0 -9.218033 -4.1270447 -9.218033 -9.218025z" fill-rule="evenodd"></path><path fill="#000000" d="m212.39731 99.58876q0.171875 -0.234375 0.375 -0.359375q0.21875 -0.125 0.453125 -0.125q0.421875 0 0.6875 0.296875q0.265625 0.28125 0.265625 0.96875l0 1.609375q0 0.6875 -0.265625 0.984375q-0.265625 0.296875 -0.6875 0.296875q-0.375 0 -0.609375 -0.21875q-0.234375 -0.21875 -0.34375 -0.796875q-0.0625 -0.390625 -0.265625 -0.609375q-0.375 -0.40625 -1.0625 -0.65625q-0.671875 -0.25 -1.359375 -0.25q-0.859375 0 -1.578125 0.375q-0.703125 0.359375 -1.25 1.203125q-0.546875 0.828125 -0.546875 1.984375l0 1.234375q0 1.375 0.984375 2.296875q1.0 0.90625 2.78125 0.90625q1.046875 0 1.78125 -0.28125q0.4375 -0.171875 0.921875 -0.65625q0.296875 -0.296875 0.453125 -0.390625q0.171875 -0.09375 0.390625 -0.09375q0.375 0 0.65625 0.296875q0.296875 0.28125 0.296875 0.671875q0 0.390625 -0.390625 0.828125q-0.5625 0.65625 -1.453125 1.03125q-1.203125 0.5 -2.65625 0.5q-1.6875 0 -3.03125 -0.703125q-1.09375 -0.546875 -1.875 -1.75q-0.765625 -1.203125 -0.765625 -2.625l0 -1.296875q0 -1.484375 0.6875 -2.765625q0.6875 -1.28125 1.90625 -1.96875q1.234375 -0.703125 2.609375 -0.703125q0.828125 0 1.546875 0.1875q0.71875 0.1875 1.34375 0.578125zm13.148697 6.71875q0 1.09375 -0.609375 2.125q-0.609375 1.015625 -1.8125 1.625q-1.203125 0.609375 -2.5 0.609375q-1.296875 0 -2.484375 -0.59375q-1.1875 -0.609375 -1.8125 -1.640625q-0.625 -1.03125 -0.625 -2.15625q0 -1.140625 0.625 -2.234375q0.640625 -1.09375 1.8125 -1.71875q1.1875 -0.640625 2.484375 -0.640625q1.296875 0 2.5 0.640625q1.203125 0.640625 1.8125 1.734375q0.609375 1.09375 0.609375 2.25zm-1.90625 0q0 -0.921875 -0.65625 -1.6875q-0.890625 -1.03125 -2.359375 -1.03125q-1.296875 0 -2.15625 0.828125q-0.859375 0.8125 -0.859375 1.90625q0 0.890625 0.859375 1.671875q0.875 0.765625 2.15625 0.765625q1.28125 0 2.140625 -0.765625q0.875 -0.78125 0.875 -1.6875zm6.242447 -4.375l0 0.640625q0.515625 -0.453125 1.140625 -0.671875q0.625 -0.21875 1.359375 -0.21875q1.6875 0 2.671875 1.046875q0.78125 0.828125 0.78125 2.1875l0 3.53125q0.59375 0 0.875 0.265625q0.296875 0.265625 0.296875 0.6875q0 0.421875 -0.296875 0.6875q-0.28125 0.265625 -0.96875 0.265625l-1.71875 0q-0.6875 0 -0.984375 -0.265625q-0.28125 -0.265625 -0.28125 -0.6875q0 -0.421875 0.28125 -0.6875q0.296875 -0.265625 0.890625 -0.265625l0 -3.59375q0 -0.609375 -0.328125 -0.90625q-0.4375 -0.359375 -1.3125 -0.359375q-0.65625 0 -1.15625 0.25q-0.5 0.25 -1.25 1.078125l0 3.53125q0.734375 0 0.9375 0.140625q0.453125 0.28125 0.453125 0.8125q0 0.421875 -0.296875 0.6875q-0.28125 0.265625 -0.96875 0.265625l-2.15625 0q-0.6875 0 -0.984375 -0.265625q-0.296875 -0.265625 -0.296875 -0.6875q0 -0.515625 0.453125 -0.8125q0.21875 -0.140625 0.953125 -0.140625l0 -4.609375q-0.609375 0 -0.890625 -0.265625q-0.28125 -0.28125 -0.28125 -0.703125q0 -0.40625 0.28125 -0.671875q0.296875 -0.265625 0.984375 -0.265625l1.8125 0zm12.648697 1.90625l0 3.8125q0 0.609375 0.25 0.796875q0.390625 0.3125 1.390625 0.3125q1.453125 0 2.6875 -0.625q0.46875 -0.234375 0.75 -0.234375q0.359375 0 0.625 0.28125q0.28125 0.265625 0.28125 0.671875q0 0.375 -0.296875 0.640625q-0.453125 0.4375 -1.796875 0.8125q-1.328125 0.359375 -2.25 0.359375q-1.765625 0 -2.65625 -0.765625q-0.890625 -0.765625 -0.890625 -1.890625l0 -4.171875l-0.6875 0q-0.6875 0 -0.984375 -0.265625q-0.28125 -0.265625 -0.28125 -0.703125q0 -0.40625 0.28125 -0.671875q0.296875 -0.265625 0.984375 -0.265625l0.6875 0l0 -1.71875q0 -0.6875 0.265625 -0.96875q0.265625 -0.296875 0.6875 -0.296875q0.421875 0 0.6875 0.296875q0.265625 0.28125 0.265625 0.96875l0 1.71875l3.515625 0q0.6875 0 0.96875 0.265625q0.296875 0.265625 0.296875 0.6875q0 0.421875 -0.296875 0.6875q-0.28125 0.265625 -0.96875 0.265625l-3.515625 0zm11.273697 -1.90625l0 1.1875q1.1875 -0.859375 1.875 -1.140625q0.703125 -0.296875 1.296875 -0.296875q0.9375 0 1.796875 0.6875q0.59375 0.453125 0.59375 0.9375q0 0.40625 -0.28125 0.703125q-0.28125 0.28125 -0.671875 0.28125q-0.359375 0 -0.75 -0.34375q-0.390625 -0.359375 -0.6875 -0.359375q-0.40625 0 -1.203125 0.5q-0.78125 0.5 -1.96875 1.5l0 2.859375l2.703125 0q0.6875 0 0.96875 0.265625q0.296875 0.265625 0.296875 0.6875q0 0.421875 -0.296875 0.6875q-0.28125 0.265625 -0.96875 0.265625l-5.75 0q-0.671875 0 -0.96875 -0.265625q-0.296875 -0.265625 -0.296875 -0.6875q0 -0.421875 0.296875 -0.6875q0.296875 -0.265625 0.96875 -0.265625l1.140625 0l0 -4.609375l-0.6875 0q-0.6875 0 -0.984375 -0.265625q-0.28125 -0.265625 -0.28125 -0.703125q0 -0.40625 0.28125 -0.671875q0.296875 -0.265625 0.984375 -0.265625l2.59375 0zm16.523682 4.375q0 1.09375 -0.609375 2.125q-0.609375 1.015625 -1.8125 1.625q-1.203125 0.609375 -2.5 0.609375q-1.296875 0 -2.484375 -0.59375q-1.1875 -0.609375 -1.8125 -1.640625q-0.625 -1.03125 -0.625 -2.15625q0 -1.140625 0.625 -2.234375q0.640625 -1.09375 1.8125 -1.71875q1.1875 -0.640625 2.484375 -0.640625q1.296875 0 2.5 0.640625q1.203125 0.640625 1.8125 1.734375q0.609375 1.09375 0.609375 2.25zm-1.90625 0q0 -0.921875 -0.65625 -1.6875q-0.890625 -1.03125 -2.359375 -1.03125q-1.296875 0 -2.15625 0.828125q-0.859375 0.8125 -0.859375 1.90625q0 0.890625 0.859375 1.671875q0.875 0.765625 2.15625 0.765625q1.28125 0 2.140625 -0.765625q0.875 -0.78125 0.875 -1.6875zm9.117462 -7.984375l0 10.125l2.28125 0q0.6875 0 0.96875 0.265625q0.296875 0.265625 0.296875 0.6875q0 0.421875 -0.296875 0.6875q-0.28125 0.265625 -0.96875 0.265625l-6.46875 0q-0.6875 0 -0.984375 -0.265625q-0.28125 -0.265625 -0.28125 -0.6875q0 -0.421875 0.28125 -0.6875q0.296875 -0.265625 0.984375 -0.265625l2.28125 0l0 -8.21875l-1.53125 0q-0.671875 0 -0.96875 -0.265625q-0.296875 -0.265625 -0.296875 -0.703125q0 -0.40625 0.28125 -0.671875q0.296875 -0.265625 0.984375 -0.265625l3.4375 0zm11.195557 0l0 10.125l2.28125 0q0.6875 0 0.96875 0.265625q0.296875 0.265625 0.296875 0.6875q0 0.421875 -0.296875 0.6875q-0.28125 0.265625 -0.96875 0.265625l-6.46875 0q-0.6875 0 -0.984375 -0.265625q-0.28125 -0.265625 -0.28125 -0.6875q0 -0.421875 0.28125 -0.6875q0.296875 -0.265625 0.984375 -0.265625l2.28125 0l0 -8.21875l-1.53125 0q-0.671875 0 -0.96875 -0.265625q-0.296875 -0.265625 -0.296875 -0.703125q0 -0.40625 0.28125 -0.671875q0.296875 -0.265625 0.984375 -0.265625l3.4375 0zm15.008087 8.78125l-7.796875 0q0.296875 0.75 1.046875 1.203125q0.765625 0.453125 2.046875 0.453125q1.0625 0 2.8125 -0.453125q0.734375 -0.1875 1.0 -0.1875q0.390625 0 0.640625 0.265625q0.265625 0.265625 0.265625 0.671875q0 0.375 -0.28125 0.640625q-0.375 0.34375 -1.8125 0.65625q-1.4375 0.3125 -2.765625 0.3125q-2.28125 0 -3.65625 -1.28125q-1.359375 -1.296875 -1.359375 -3.1875q0 -2.0 1.484375 -3.25q1.484375 -1.265625 3.40625 -1.265625q1.15625 0 2.125 0.40625q0.96875 0.40625 1.453125 0.875q0.65625 0.6875 1.09375 1.703125q0.296875 0.703125 0.296875 1.640625l0 0.796875zm-2.09375 -1.90625q-0.4375 -0.8125 -1.15625 -1.203125q-0.703125 -0.40625 -1.671875 -0.40625q-0.96875 0 -1.671875 0.40625q-0.703125 0.390625 -1.140625 1.203125l5.640625 0zm8.133057 -3.265625l0 1.1875q1.1875 -0.859375 1.875 -1.140625q0.703125 -0.296875 1.296875 -0.296875q0.9375 0 1.796875 0.6875q0.59375 0.453125 0.59375 0.9375q0 0.40625 -0.28125 0.703125q-0.28125 0.28125 -0.671875 0.28125q-0.359375 0 -0.75 -0.34375q-0.390625 -0.359375 -0.6875 -0.359375q-0.40625 0 -1.203125 0.5q-0.78125 0.5 -1.96875 1.5l0 2.859375l2.703125 0q0.6875 0 0.96875 0.265625q0.296875 0.265625 0.296875 0.6875q0 0.421875 -0.296875 0.6875q-0.28125 0.265625 -0.96875 0.265625l-5.75 0q-0.671875 0 -0.96875 -0.265625q-0.296875 -0.265625 -0.296875 -0.6875q0 -0.421875 0.296875 -0.6875q0.296875 -0.265625 0.96875 -0.265625l1.140625 0l0 -4.609375l-0.6875 0q-0.6875 0 -0.984375 -0.265625q-0.28125 -0.265625 -0.28125 -0.703125q0 -0.40625 0.28125 -0.671875q0.296875 -0.265625 0.984375 -0.265625l2.59375 0z" fill-rule="nonzero"></path><path fill="#cfe2f3" d="m383.7244 9.009071l0 0c0 -3.6355848 2.947235 -6.5828085 6.5828247 -6.5828085l124.50369 0c1.7458496 0 3.420227 0.69354415 4.654724 1.9280603c1.2344971 1.2345161 1.9280396 2.9088793 1.9280396 4.6547484l0 26.330444c0 3.6355858 -2.9472046 6.5828094 -6.5827637 6.5828094l-124.50369 0c-3.6355896 0 -6.5828247 -2.9472237 -6.5828247 -6.5828094z" fill-rule="evenodd"></path><path stroke="#676767" stroke-width="1.0" stroke-linejoin="round" stroke-linecap="butt" d="m383.7244 9.009071l0 0c0 -3.6355848 2.947235 -6.5828085 6.5828247 -6.5828085l124.50369 0c1.7458496 0 3.420227 0.69354415 4.654724 1.9280603c1.2344971 1.2345161 1.9280396 2.9088793 1.9280396 4.6547484l0 26.330444c0 3.6355858 -2.9472046 6.5828094 -6.5827637 6.5828094l-124.50369 0c-3.6355896 0 -6.5828247 -2.9472237 -6.5828247 -6.5828094z" fill-rule="evenodd"></path><path fill="#000000" d="m427.3045 21.516167l0 5.671875l0.6875 0q0.671875 0 0.96875 0.265625q0.296875 0.265625 0.296875 0.6875q0 0.421875 -0.296875 0.6875q-0.296875 0.265625 -0.96875 0.265625l-2.5 0q-0.6875 0 -0.984375 -0.265625q-0.296875 -0.265625 -0.296875 -0.6875q0 -0.421875 0.296875 -0.6875q0.28125 -0.265625 0.890625 -0.265625l0 -7.4375q-0.5 -0.046875 -0.765625 -0.296875q-0.25 -0.265625 -0.25 -0.65625q0 -0.421875 0.296875 -0.6875q0.296875 -0.265625 0.96875 -0.265625l2.09375 0l2.59375 5.734375l2.53125 -5.734375l2.109375 0q0.6875 0 0.984375 0.265625q0.296875 0.265625 0.296875 0.6875q0 0.390625 -0.265625 0.65625q-0.265625 0.25 -0.75 0.296875l0 7.4375q0.59375 0 0.875 0.28125q0.296875 0.265625 0.296875 0.671875q0 0.421875 -0.296875 0.6875q-0.28125 0.265625 -0.96875 0.265625l-2.5 0q-0.6875 0 -0.984375 -0.265625q-0.28125 -0.265625 -0.28125 -0.6875q0 -0.421875 0.28125 -0.6875q0.296875 -0.265625 0.984375 -0.265625l0.6875 0l0 -5.671875l-2.171875 4.90625l-1.65625 0l-2.203125 -4.90625zm19.101807 3.53125q0 1.09375 -0.609375 2.125q-0.609375 1.015625 -1.8125 1.625q-1.203125 0.609375 -2.5 0.609375q-1.296875 0 -2.484375 -0.59375q-1.1875 -0.609375 -1.8125 -1.640625q-0.625 -1.03125 -0.625 -2.15625q0 -1.140625 0.625 -2.234375q0.640625 -1.09375 1.8125 -1.71875q1.1875 -0.640625 2.484375 -0.640625q1.296875 0 2.5 0.640625q1.203125 0.640625 1.8125 1.734375q0.609375 1.09375 0.609375 2.25zm-1.90625 0q0 -0.921875 -0.65625 -1.6875q-0.890625 -1.03125 -2.359375 -1.03125q-1.296875 0 -2.15625 0.828125q-0.859375 0.8125 -0.859375 1.90625q0 0.890625 0.859375 1.671875q0.875 0.765625 2.15625 0.765625q1.28125 0 2.140625 -0.765625q0.875 -0.78125 0.875 -1.6875zm12.523712 -7.984375l0 10.125l0.328125 0q0.671875 0 0.96875 0.265625q0.296875 0.265625 0.296875 0.6875q0 0.421875 -0.296875 0.6875q-0.28125 0.265625 -0.96875 0.265625l-2.21875 0l0 -0.46875q-0.65625 0.390625 -1.375 0.578125q-0.703125 0.203125 -1.46875 0.203125q-2.140625 0 -3.453125 -1.234375q-1.296875 -1.25 -1.296875 -3.09375q0 -1.9375 1.375 -3.296875q1.375 -1.359375 3.34375 -1.359375q0.75 0 1.453125 0.234375q0.71875 0.21875 1.421875 0.671875l0 -2.359375l-0.328125 0q-0.6875 0 -0.984375 -0.265625q-0.296875 -0.265625 -0.296875 -0.6875q0 -0.421875 0.296875 -0.6875q0.296875 -0.265625 0.984375 -0.265625l2.21875 0zm-1.890625 8.0625q0 -1.171875 -0.828125 -1.984375q-0.828125 -0.8125 -2.03125 -0.8125q-1.1875 0 -2.015625 0.8125q-0.8125 0.8125 -0.8125 1.96875q0 1.046875 0.734375 1.71875q0.75 0.671875 2.09375 0.671875q1.34375 0 2.09375 -0.671875q0.765625 -0.671875 0.765625 -1.703125zm13.492432 0.71875l-7.796875 0q0.296875 0.75 1.046875 1.203125q0.765625 0.453125 2.046875 0.453125q1.0625 0 2.8125 -0.453125q0.734375 -0.1875 1.0 -0.1875q0.390625 0 0.640625 0.265625q0.265625 0.265625 0.265625 0.671875q0 0.375 -0.28125 0.640625q-0.375 0.34375 -1.8125 0.65625q-1.4375 0.3125 -2.765625 0.3125q-2.28125 0 -3.65625 -1.28125q-1.359375 -1.296875 -1.359375 -3.1875q0 -2.0 1.484375 -3.25q1.484375 -1.265625 3.40625 -1.265625q1.15625 0 2.125 0.40625q0.96875 0.40625 1.453125 0.875q0.65625 0.6875 1.09375 1.703125q0.296875 0.703125 0.296875 1.640625l0 0.796875zm-2.09375 -1.90625q-0.4375 -0.8125 -1.15625 -1.203125q-0.703125 -0.40625 -1.671875 -0.40625q-0.96875 0 -1.671875 0.40625q-0.703125 0.390625 -1.140625 1.203125l5.640625 0zm9.476837 -6.875l0 10.125l2.28125 0q0.6875 0 0.96875 0.265625q0.296875 0.265625 0.296875 0.6875q0 0.421875 -0.296875 0.6875q-0.28125 0.265625 -0.96875 0.265625l-6.46875 0q-0.6875 0 -0.984375 -0.265625q-0.28125 -0.265625 -0.28125 -0.6875q0 -0.421875 0.28125 -0.6875q0.296875 -0.265625 0.984375 -0.265625l2.28125 0l0 -8.21875l-1.53125 0q-0.671875 0 -0.96875 -0.265625q-0.296875 -0.265625 -0.296875 -0.703125q0 -0.40625 0.28125 -0.671875q0.296875 -0.265625 0.984375 -0.265625l3.4375 0z" fill-rule="nonzero"></path><path fill="#cfe2f3" d="m383.7244 63.179676l0 0c0 -3.6355858 2.947235 -6.5828094 6.5828247 -6.5828094l124.50369 0c1.7458496 0 3.420227 0.6935425 4.654724 1.9280586c1.2344971 1.2345161 1.9280396 2.9088821 1.9280396 4.654751l0 26.330448c0 3.635582 -2.9472046 6.582802 -6.5827637 6.582802l-124.50369 0c-3.6355896 0 -6.5828247 -2.9472198 -6.5828247 -6.582802z" fill-rule="evenodd"></path><path stroke="#676767" stroke-width="1.0" stroke-linejoin="round" stroke-linecap="butt" d="m383.7244 63.179676l0 0c0 -3.6355858 2.947235 -6.5828094 6.5828247 -6.5828094l124.50369 0c1.7458496 0 3.420227 0.6935425 4.654724 1.9280586c1.2344971 1.2345161 1.9280396 2.9088821 1.9280396 4.654751l0 26.330448c0 3.635582 -2.9472046 6.582802 -6.5827637 6.582802l-124.50369 0c-3.6355896 0 -6.5828247 -2.9472198 -6.5828247 -6.582802z" fill-rule="evenodd"></path><path fill="#000000" d="m427.3045 75.68677l0 5.671875l0.6875 0q0.671875 0 0.96875 0.265625q0.296875 0.265625 0.296875 0.6875q0 0.421875 -0.296875 0.6875q-0.296875 0.265625 -0.96875 0.265625l-2.5 0q-0.6875 0 -0.984375 -0.265625q-0.296875 -0.265625 -0.296875 -0.6875q0 -0.421875 0.296875 -0.6875q0.28125 -0.265625 0.890625 -0.265625l0 -7.4375q-0.5 -0.046875 -0.765625 -0.296875q-0.25 -0.265625 -0.25 -0.65625q0 -0.421875 0.296875 -0.6875q0.296875 -0.265625 0.96875 -0.265625l2.09375 0l2.59375 5.734375l2.53125 -5.734375l2.109375 0q0.6875 0 0.984375 0.265625q0.296875 0.265625 0.296875 0.6875q0 0.390625 -0.265625 0.65625q-0.265625 0.25 -0.75 0.296875l0 7.4375q0.59375 0 0.875 0.28125q0.296875 0.265625 0.296875 0.671875q0 0.421875 -0.296875 0.6875q-0.28125 0.265625 -0.96875 0.265625l-2.5 0q-0.6875 0 -0.984375 -0.265625q-0.28125 -0.265625 -0.28125 -0.6875q0 -0.421875 0.28125 -0.6875q0.296875 -0.265625 0.984375 -0.265625l0.6875 0l0 -5.671875l-2.171875 4.90625l-1.65625 0l-2.203125 -4.90625zm19.101807 3.53125q0 1.09375 -0.609375 2.125q-0.609375 1.015625 -1.8125 1.625q-1.203125 0.609375 -2.5 0.609375q-1.296875 0 -2.484375 -0.59375q-1.1875 -0.609375 -1.8125 -1.640625q-0.625 -1.03125 -0.625 -2.15625q0 -1.140625 0.625 -2.234375q0.640625 -1.09375 1.8125 -1.71875q1.1875 -0.640625 2.484375 -0.640625q1.296875 0 2.5 0.640625q1.203125 0.640625 1.8125 1.734375q0.609375 1.09375 0.609375 2.25zm-1.90625 0q0 -0.921875 -0.65625 -1.6875q-0.890625 -1.03125 -2.359375 -1.03125q-1.296875 0 -2.15625 0.828125q-0.859375 0.8125 -0.859375 1.90625q0 0.890625 0.859375 1.671875q0.875 0.765625 2.15625 0.765625q1.28125 0 2.140625 -0.765625q0.875 -0.78125 0.875 -1.6875zm12.523712 -7.984375l0 10.125l0.328125 0q0.671875 0 0.96875 0.265625q0.296875 0.265625 0.296875 0.6875q0 0.421875 -0.296875 0.6875q-0.28125 0.265625 -0.96875 0.265625l-2.21875 0l0 -0.46875q-0.65625 0.390625 -1.375 0.578125q-0.703125 0.203125 -1.46875 0.203125q-2.140625 0 -3.453125 -1.234375q-1.296875 -1.25 -1.296875 -3.09375q0 -1.9375 1.375 -3.296875q1.375 -1.359375 3.34375 -1.359375q0.75 0 1.453125 0.234375q0.71875 0.21875 1.421875 0.671875l0 -2.359375l-0.328125 0q-0.6875 0 -0.984375 -0.265625q-0.296875 -0.265625 -0.296875 -0.6875q0 -0.421875 0.296875 -0.6875q0.296875 -0.265625 0.984375 -0.265625l2.21875 0zm-1.890625 8.0625q0 -1.171875 -0.828125 -1.984375q-0.828125 -0.8125 -2.03125 -0.8125q-1.1875 0 -2.015625 0.8125q-0.8125 0.8125 -0.8125 1.96875q0 1.046875 0.734375 1.71875q0.75 0.671875 2.09375 0.671875q1.34375 0 2.09375 -0.671875q0.765625 -0.671875 0.765625 -1.703125zm13.492432 0.71875l-7.796875 0q0.296875 0.75 1.046875 1.203125q0.765625 0.453125 2.046875 0.453125q1.0625 0 2.8125 -0.453125q0.734375 -0.1875 1.0 -0.1875q0.390625 0 0.640625 0.265625q0.265625 0.265625 0.265625 0.671875q0 0.375 -0.28125 0.640625q-0.375 0.34375 -1.8125 0.65625q-1.4375 0.3125 -2.765625 0.3125q-2.28125 0 -3.65625 -1.28125q-1.359375 -1.296875 -1.359375 -3.1875q0 -2.0 1.484375 -3.25q1.484375 -1.265625 3.40625 -1.265625q1.15625 0 2.125 0.40625q0.96875 0.40625 1.453125 0.875q0.65625 0.6875 1.09375 1.703125q0.296875 0.703125 0.296875 1.640625l0 0.796875zm-2.09375 -1.90625q-0.4375 -0.8125 -1.15625 -1.203125q-0.703125 -0.40625 -1.671875 -0.40625q-0.96875 0 -1.671875 0.40625q-0.703125 0.390625 -1.140625 1.203125l5.640625 0zm9.476837 -6.875l0 10.125l2.28125 0q0.6875 0 0.96875 0.265625q0.296875 0.265625 0.296875 0.6875q0 0.421875 -0.296875 0.6875q-0.28125 0.265625 -0.96875 0.265625l-6.46875 0q-0.6875 0 -0.984375 -0.265625q-0.28125 -0.265625 -0.28125 -0.6875q0 -0.421875 0.28125 -0.6875q0.296875 -0.265625 0.984375 -0.265625l2.28125 0l0 -8.21875l-1.53125 0q-0.671875 0 -0.96875 -0.265625q-0.296875 -0.265625 -0.296875 -0.703125q0 -0.40625 0.28125 -0.671875q0.296875 -0.265625 0.984375 -0.265625l3.4375 0z" fill-rule="nonzero"></path><path fill="#cfe2f3" d="m383.7244 117.35028l0 0c0 -3.6355896 2.947235 -6.5828094 6.5828247 -6.5828094l124.50369 0c1.7458496 0 3.420227 0.6935425 4.654724 1.9280624c1.2344971 1.2345123 1.9280396 2.9088745 1.9280396 4.654747l0 26.330444c0 3.6355896 -2.9472046 6.5828094 -6.5827637 6.5828094l-124.50369 0c-3.6355896 0 -6.5828247 -2.9472198 -6.5828247 -6.5828094z" fill-rule="evenodd"></path><path stroke="#676767" stroke-width="1.0" stroke-linejoin="round" stroke-linecap="butt" d="m383.7244 117.35028l0 0c0 -3.6355896 2.947235 -6.5828094 6.5828247 -6.5828094l124.50369 0c1.7458496 0 3.420227 0.6935425 4.654724 1.9280624c1.2344971 1.2345123 1.9280396 2.9088745 1.9280396 4.654747l0 26.330444c0 3.6355896 -2.9472046 6.5828094 -6.5827637 6.5828094l-124.50369 0c-3.6355896 0 -6.5828247 -2.9472198 -6.5828247 -6.5828094z" fill-rule="evenodd"></path><path fill="#000000" d="m427.3045 129.85738l0 5.671875l0.6875 0q0.671875 0 0.96875 0.265625q0.296875 0.265625 0.296875 0.6875q0 0.421875 -0.296875 0.6875q-0.296875 0.265625 -0.96875 0.265625l-2.5 0q-0.6875 0 -0.984375 -0.265625q-0.296875 -0.265625 -0.296875 -0.6875q0 -0.421875 0.296875 -0.6875q0.28125 -0.265625 0.890625 -0.265625l0 -7.4375q-0.5 -0.046875 -0.765625 -0.296875q-0.25 -0.265625 -0.25 -0.65625q0 -0.421875 0.296875 -0.6875q0.296875 -0.265625 0.96875 -0.265625l2.09375 0l2.59375 5.734375l2.53125 -5.734375l2.109375 0q0.6875 0 0.984375 0.265625q0.296875 0.265625 0.296875 0.6875q0 0.390625 -0.265625 0.65625q-0.265625 0.25 -0.75 0.296875l0 7.4375q0.59375 0 0.875 0.28125q0.296875 0.265625 0.296875 0.671875q0 0.421875 -0.296875 0.6875q-0.28125 0.265625 -0.96875 0.265625l-2.5 0q-0.6875 0 -0.984375 -0.265625q-0.28125 -0.265625 -0.28125 -0.6875q0 -0.421875 0.28125 -0.6875q0.296875 -0.265625 0.984375 -0.265625l0.6875 0l0 -5.671875l-2.171875 4.90625l-1.65625 0l-2.203125 -4.90625zm19.101807 3.53125q0 1.09375 -0.609375 2.125q-0.609375 1.015625 -1.8125 1.625q-1.203125 0.609375 -2.5 0.609375q-1.296875 0 -2.484375 -0.59375q-1.1875 -0.609375 -1.8125 -1.640625q-0.625 -1.03125 -0.625 -2.15625q0 -1.140625 0.625 -2.234375q0.640625 -1.09375 1.8125 -1.71875q1.1875 -0.640625 2.484375 -0.640625q1.296875 0 2.5 0.640625q1.203125 0.640625 1.8125 1.734375q0.609375 1.09375 0.609375 2.25zm-1.90625 0q0 -0.921875 -0.65625 -1.6875q-0.890625 -1.03125 -2.359375 -1.03125q-1.296875 0 -2.15625 0.828125q-0.859375 0.8125 -0.859375 1.90625q0 0.890625 0.859375 1.671875q0.875 0.765625 2.15625 0.765625q1.28125 0 2.140625 -0.765625q0.875 -0.78125 0.875 -1.6875zm12.523712 -7.984375l0 10.125l0.328125 0q0.671875 0 0.96875 0.265625q0.296875 0.265625 0.296875 0.6875q0 0.421875 -0.296875 0.6875q-0.28125 0.265625 -0.96875 0.265625l-2.21875 0l0 -0.46875q-0.65625 0.390625 -1.375 0.578125q-0.703125 0.203125 -1.46875 0.203125q-2.140625 0 -3.453125 -1.234375q-1.296875 -1.25 -1.296875 -3.09375q0 -1.9375 1.375 -3.296875q1.375 -1.359375 3.34375 -1.359375q0.75 0 1.453125 0.234375q0.71875 0.21875 1.421875 0.671875l0 -2.359375l-0.328125 0q-0.6875 0 -0.984375 -0.265625q-0.296875 -0.265625 -0.296875 -0.6875q0 -0.421875 0.296875 -0.6875q0.296875 -0.265625 0.984375 -0.265625l2.21875 0zm-1.890625 8.0625q0 -1.171875 -0.828125 -1.984375q-0.828125 -0.8125 -2.03125 -0.8125q-1.1875 0 -2.015625 0.8125q-0.8125 0.8125 -0.8125 1.96875q0 1.046875 0.734375 1.71875q0.75 0.671875 2.09375 0.671875q1.34375 0 2.09375 -0.671875q0.765625 -0.671875 0.765625 -1.703125zm13.492432 0.71875l-7.796875 0q0.296875 0.75 1.046875 1.203125q0.765625 0.453125 2.046875 0.453125q1.0625 0 2.8125 -0.453125q0.734375 -0.1875 1.0 -0.1875q0.390625 0 0.640625 0.265625q0.265625 0.265625 0.265625 0.671875q0 0.375 -0.28125 0.640625q-0.375 0.34375 -1.8125 0.65625q-1.4375 0.3125 -2.765625 0.3125q-2.28125 0 -3.65625 -1.28125q-1.359375 -1.296875 -1.359375 -3.1875q0 -2.0 1.484375 -3.25q1.484375 -1.265625 3.40625 -1.265625q1.15625 0 2.125 0.40625q0.96875 0.40625 1.453125 0.875q0.65625 0.6875 1.09375 1.703125q0.296875 0.703125 0.296875 1.640625l0 0.796875zm-2.09375 -1.90625q-0.4375 -0.8125 -1.15625 -1.203125q-0.703125 -0.40625 -1.671875 -0.40625q-0.96875 0 -1.671875 0.40625q-0.703125 0.390625 -1.140625 1.203125l5.640625 0zm9.476837 -6.875l0 10.125l2.28125 0q0.6875 0 0.96875 0.265625q0.296875 0.265625 0.296875 0.6875q0 0.421875 -0.296875 0.6875q-0.28125 0.265625 -0.96875 0.265625l-6.46875 0q-0.6875 0 -0.984375 -0.265625q-0.28125 -0.265625 -0.28125 -0.6875q0 -0.421875 0.28125 -0.6875q0.296875 -0.265625 0.984375 -0.265625l2.28125 0l0 -8.21875l-1.53125 0q-0.671875 0 -0.96875 -0.265625q-0.296875 -0.265625 -0.296875 -0.703125q0 -0.40625 0.28125 -0.671875q0.296875 -0.265625 0.984375 -0.265625l3.4375 0z" fill-rule="nonzero"></path><path fill="#cfe2f3" d="m383.7244 171.52089l0 0c0 -3.6355896 2.947235 -6.5828094 6.5828247 -6.5828094l124.50369 0c1.7458496 0 3.420227 0.6935425 4.654724 1.9280548c1.2344971 1.2345123 1.9280396 2.9088745 1.9280396 4.6547546l0 26.330444c0 3.6355743 -2.9472046 6.5828094 -6.5827637 6.5828094l-124.50369 0c-3.6355896 0 -6.5828247 -2.947235 -6.5828247 -6.5828094z" fill-rule="evenodd"></path><path stroke="#676767" stroke-width="1.0" stroke-linejoin="round" stroke-linecap="butt" d="m383.7244 171.52089l0 0c0 -3.6355896 2.947235 -6.5828094 6.5828247 -6.5828094l124.50369 0c1.7458496 0 3.420227 0.6935425 4.654724 1.9280548c1.2344971 1.2345123 1.9280396 2.9088745 1.9280396 4.6547546l0 26.330444c0 3.6355743 -2.9472046 6.5828094 -6.5827637 6.5828094l-124.50369 0c-3.6355896 0 -6.5828247 -2.947235 -6.5828247 -6.5828094z" fill-rule="evenodd"></path><path fill="#000000" d="m427.3045 184.02798l0 5.671875l0.6875 0q0.671875 0 0.96875 0.265625q0.296875 0.265625 0.296875 0.6875q0 0.421875 -0.296875 0.6875q-0.296875 0.265625 -0.96875 0.265625l-2.5 0q-0.6875 0 -0.984375 -0.265625q-0.296875 -0.265625 -0.296875 -0.6875q0 -0.421875 0.296875 -0.6875q0.28125 -0.265625 0.890625 -0.265625l0 -7.4375q-0.5 -0.046875 -0.765625 -0.296875q-0.25 -0.265625 -0.25 -0.65625q0 -0.421875 0.296875 -0.6875q0.296875 -0.265625 0.96875 -0.265625l2.09375 0l2.59375 5.734375l2.53125 -5.734375l2.109375 0q0.6875 0 0.984375 0.265625q0.296875 0.265625 0.296875 0.6875q0 0.390625 -0.265625 0.65625q-0.265625 0.25 -0.75 0.296875l0 7.4375q0.59375 0 0.875 0.28125q0.296875 0.265625 0.296875 0.671875q0 0.421875 -0.296875 0.6875q-0.28125 0.265625 -0.96875 0.265625l-2.5 0q-0.6875 0 -0.984375 -0.265625q-0.28125 -0.265625 -0.28125 -0.6875q0 -0.421875 0.28125 -0.6875q0.296875 -0.265625 0.984375 -0.265625l0.6875 0l0 -5.671875l-2.171875 4.90625l-1.65625 0l-2.203125 -4.90625zm19.101807 3.53125q0 1.09375 -0.609375 2.125q-0.609375 1.015625 -1.8125 1.625q-1.203125 0.609375 -2.5 0.609375q-1.296875 0 -2.484375 -0.59375q-1.1875 -0.609375 -1.8125 -1.640625q-0.625 -1.03125 -0.625 -2.15625q0 -1.140625 0.625 -2.234375q0.640625 -1.09375 1.8125 -1.71875q1.1875 -0.640625 2.484375 -0.640625q1.296875 0 2.5 0.640625q1.203125 0.640625 1.8125 1.734375q0.609375 1.09375 0.609375 2.25zm-1.90625 0q0 -0.921875 -0.65625 -1.6875q-0.890625 -1.03125 -2.359375 -1.03125q-1.296875 0 -2.15625 0.828125q-0.859375 0.8125 -0.859375 1.90625q0 0.890625 0.859375 1.671875q0.875 0.765625 2.15625 0.765625q1.28125 0 2.140625 -0.765625q0.875 -0.78125 0.875 -1.6875zm12.523712 -7.984375l0 10.125l0.328125 0q0.671875 0 0.96875 0.265625q0.296875 0.265625 0.296875 0.6875q0 0.421875 -0.296875 0.6875q-0.28125 0.265625 -0.96875 0.265625l-2.21875 0l0 -0.46875q-0.65625 0.390625 -1.375 0.578125q-0.703125 0.203125 -1.46875 0.203125q-2.140625 0 -3.453125 -1.234375q-1.296875 -1.25 -1.296875 -3.09375q0 -1.9375 1.375 -3.296875q1.375 -1.359375 3.34375 -1.359375q0.75 0 1.453125 0.234375q0.71875 0.21875 1.421875 0.671875l0 -2.359375l-0.328125 0q-0.6875 0 -0.984375 -0.265625q-0.296875 -0.265625 -0.296875 -0.6875q0 -0.421875 0.296875 -0.6875q0.296875 -0.265625 0.984375 -0.265625l2.21875 0zm-1.890625 8.0625q0 -1.171875 -0.828125 -1.984375q-0.828125 -0.8125 -2.03125 -0.8125q-1.1875 0 -2.015625 0.8125q-0.8125 0.8125 -0.8125 1.96875q0 1.046875 0.734375 1.71875q0.75 0.671875 2.09375 0.671875q1.34375 0 2.09375 -0.671875q0.765625 -0.671875 0.765625 -1.703125zm13.492432 0.71875l-7.796875 0q0.296875 0.75 1.046875 1.203125q0.765625 0.453125 2.046875 0.453125q1.0625 0 2.8125 -0.453125q0.734375 -0.1875 1.0 -0.1875q0.390625 0 0.640625 0.265625q0.265625 0.265625 0.265625 0.671875q0 0.375 -0.28125 0.640625q-0.375 0.34375 -1.8125 0.65625q-1.4375 0.3125 -2.765625 0.3125q-2.28125 0 -3.65625 -1.28125q-1.359375 -1.296875 -1.359375 -3.1875q0 -2.0 1.484375 -3.25q1.484375 -1.265625 3.40625 -1.265625q1.15625 0 2.125 0.40625q0.96875 0.40625 1.453125 0.875q0.65625 0.6875 1.09375 1.703125q0.296875 0.703125 0.296875 1.640625l0 0.796875zm-2.09375 -1.90625q-0.4375 -0.8125 -1.15625 -1.203125q-0.703125 -0.40625 -1.671875 -0.40625q-0.96875 0 -1.671875 0.40625q-0.703125 0.390625 -1.140625 1.203125l5.640625 0zm9.476837 -6.875l0 10.125l2.28125 0q0.6875 0 0.96875 0.265625q0.296875 0.265625 0.296875 0.6875q0 0.421875 -0.296875 0.6875q-0.28125 0.265625 -0.96875 0.265625l-6.46875 0q-0.6875 0 -0.984375 -0.265625q-0.28125 -0.265625 -0.28125 -0.6875q0 -0.421875 0.28125 -0.6875q0.296875 -0.265625 0.984375 -0.265625l2.28125 0l0 -8.21875l-1.53125 0q-0.671875 0 -0.96875 -0.265625q-0.296875 -0.265625 -0.296875 -0.703125q0 -0.40625 0.28125 -0.671875q0.296875 -0.265625 0.984375 -0.265625l3.4375 0z" fill-rule="nonzero"></path><path fill="#fce5cd" d="m589.1155 36.0933l0 0c0 -3.6355858 2.9472046 -6.5828075 6.5828247 -6.5828075l139.18085 0c1.7458496 0 3.420227 0.6935425 4.654724 1.9280586c1.2344971 1.234518 1.9280396 2.9088802 1.9280396 4.654749l0 26.330444c0 3.6355896 -2.9472046 6.5828094 -6.5827637 6.5828094l-139.18085 0c-3.63562 0 -6.5828247 -2.9472198 -6.5828247 -6.5828094z" fill-rule="evenodd"></path><path stroke="#676767" stroke-width="1.0" stroke-linejoin="round" stroke-linecap="butt" d="m589.1155 36.0933l0 0c0 -3.6355858 2.9472046 -6.5828075 6.5828247 -6.5828075l139.18085 0c1.7458496 0 3.420227 0.6935425 4.654724 1.9280586c1.2344971 1.234518 1.9280396 2.9088802 1.9280396 4.654749l0 26.330444c0 3.6355896 -2.9472046 6.5828094 -6.5827637 6.5828094l-139.18085 0c-3.63562 0 -6.5828247 -2.9472198 -6.5828247 -6.5828094z" fill-rule="evenodd"></path><path fill="#000000" d="m637.4051 53.39727l2.75 -6.5625l-0.4375 0q-0.6875 0 -0.984375 -0.265625q-0.28125 -0.265625 -0.28125 -0.6875q0 -0.421875 0.28125 -0.6875q0.296875 -0.265625 0.984375 -0.265625l2.546875 0q0.6875 0 0.984375 0.265625q0.296875 0.265625 0.296875 0.6875q0 0.515625 -0.453125 0.8125q-0.21875 0.140625 -0.875 0.140625l-3.90625 9.34375l-1.828125 0l-3.890625 -9.34375q-0.671875 0 -0.875 -0.140625q-0.453125 -0.296875 -0.453125 -0.8125q0 -0.421875 0.296875 -0.6875q0.296875 -0.265625 0.96875 -0.265625l2.578125 0q0.671875 0 0.96875 0.265625q0.296875 0.265625 0.296875 0.6875q0 0.421875 -0.296875 0.6875q-0.28125 0.265625 -0.96875 0.265625l-0.453125 0l2.75 6.5625zm11.883118 -9.25l0 2.015625l-2.265625 0l0 -2.015625l2.265625 0zm0.25 3.609375l0 6.515625l2.28125 0q0.6875 0 0.984375 0.265625q0.296875 0.265625 0.296875 0.6875q0 0.421875 -0.296875 0.6875q-0.296875 0.265625 -0.984375 0.265625l-6.46875 0q-0.6875 0 -0.984375 -0.265625q-0.28125 -0.265625 -0.28125 -0.6875q0 -0.421875 0.28125 -0.6875q0.296875 -0.265625 0.984375 -0.265625l2.28125 0l0 -4.609375l-1.53125 0q-0.671875 0 -0.96875 -0.265625q-0.296875 -0.265625 -0.296875 -0.703125q0 -0.40625 0.296875 -0.671875q0.296875 -0.265625 0.96875 -0.265625l3.4375 0zm15.023682 5.171875l-7.796875 0q0.296875 0.75 1.046875 1.203125q0.765625 0.453125 2.046875 0.453125q1.0625 0 2.8125 -0.453125q0.734375 -0.1875 1.0 -0.1875q0.390625 0 0.640625 0.265625q0.265625 0.265625 0.265625 0.671875q0 0.375 -0.28125 0.640625q-0.375 0.34375 -1.8125 0.65625q-1.4375 0.3125 -2.765625 0.3125q-2.28125 0 -3.65625 -1.28125q-1.359375 -1.296875 -1.359375 -3.1875q0 -2.0 1.484375 -3.25q1.484375 -1.265625 3.40625 -1.265625q1.15625 0 2.125 0.40625q0.96875 0.40625 1.453125 0.875q0.65625 0.6875 1.09375 1.703125q0.296875 0.703125 0.296875 1.640625l0 0.796875zm-2.09375 -1.90625q-0.4375 -0.8125 -1.15625 -1.203125q-0.703125 -0.40625 -1.671875 -0.40625q-0.96875 0 -1.671875 0.40625q-0.703125 0.390625 -1.140625 1.203125l5.640625 0zm8.539307 1.65625l-1.328125 3.5l-1.78125 0l-1.59375 -6.515625q-0.53125 -0.03125 -0.796875 -0.296875q-0.25 -0.265625 -0.25 -0.671875q0 -0.40625 0.28125 -0.671875q0.296875 -0.265625 0.984375 -0.265625l1.765625 0q0.6875 0 0.984375 0.265625q0.296875 0.265625 0.296875 0.6875q0 0.421875 -0.34375 0.71875q-0.25 0.234375 -0.984375 0.234375l0.734375 3.015625l1.171875 -3.09375l1.6875 0l1.1875 3.09375l0.75 -3.015625q-0.703125 0 -0.9375 -0.140625q-0.4375 -0.296875 -0.4375 -0.828125q0 -0.40625 0.28125 -0.671875q0.296875 -0.265625 0.984375 -0.265625l1.796875 0q0.6875 0 0.96875 0.265625q0.296875 0.265625 0.296875 0.6875q0 0.375 -0.265625 0.640625q-0.25 0.265625 -0.75 0.3125l-1.546875 6.515625l-1.765625 0l-1.390625 -3.5zm24.703674 0.4375l-4.625 0l-0.46875 1.15625l0.46875 0q0.6875 0 0.96875 0.265625q0.296875 0.265625 0.296875 0.6875q0 0.421875 -0.296875 0.6875q-0.28125 0.265625 -0.96875 0.265625l-2.5625 0q-0.6875 0 -0.96875 -0.265625q-0.296875 -0.265625 -0.296875 -0.6875q0 -0.421875 0.3125 -0.6875q0.296875 -0.28125 1.0 -0.265625l2.984375 -7.4375l-1.234375 0q-0.6875 0 -0.984375 -0.265625q-0.296875 -0.265625 -0.296875 -0.6875q0 -0.421875 0.296875 -0.6875q0.296875 -0.265625 0.984375 -0.265625l4.109375 0l3.78125 9.34375q0.671875 0 0.875 0.15625q0.4375 0.296875 0.4375 0.796875q0 0.421875 -0.296875 0.6875q-0.28125 0.265625 -0.96875 0.265625l-2.5625 0q-0.6875 0 -0.984375 -0.265625q-0.28125 -0.265625 -0.28125 -0.6875q0 -0.421875 0.28125 -0.6875q0.296875 -0.265625 0.984375 -0.265625l0.46875 0l-0.453125 -1.15625zm-0.796875 -1.90625l-1.53125 -3.765625l-1.53125 3.765625l3.0625 0z" fill-rule="nonzero"></path><path fill="#fce5cd" d="m589.1155 90.26915l0 0c0 -3.635582 2.9472046 -6.582802 6.5828247 -6.582802l139.18085 0c1.7458496 0 3.420227 0.6935425 4.654724 1.9280548c1.2344971 1.23452 1.9280396 2.9088821 1.9280396 4.654747l0 26.330452c0 3.635582 -2.9472046 6.5828094 -6.5827637 6.5828094l-139.18085 0c-3.63562 0 -6.5828247 -2.9472275 -6.5828247 -6.5828094z" fill-rule="evenodd"></path><path stroke="#676767" stroke-width="1.0" stroke-linejoin="round" stroke-linecap="butt" d="m589.1155 90.26915l0 0c0 -3.635582 2.9472046 -6.582802 6.5828247 -6.582802l139.18085 0c1.7458496 0 3.420227 0.6935425 4.654724 1.9280548c1.2344971 1.23452 1.9280396 2.9088821 1.9280396 4.654747l0 26.330452c0 3.635582 -2.9472046 6.5828094 -6.5827637 6.5828094l-139.18085 0c-3.63562 0 -6.5828247 -2.9472275 -6.5828247 -6.5828094z" fill-rule="evenodd"></path><path fill="#000000" d="m637.4051 107.57312l2.75 -6.5625l-0.4375 0q-0.6875 0 -0.984375 -0.265625q-0.28125 -0.265625 -0.28125 -0.6875q0 -0.421875 0.28125 -0.6875q0.296875 -0.265625 0.984375 -0.265625l2.546875 0q0.6875 0 0.984375 0.265625q0.296875 0.265625 0.296875 0.6875q0 0.515625 -0.453125 0.8125q-0.21875 0.140625 -0.875 0.140625l-3.90625 9.34375l-1.828125 0l-3.890625 -9.34375q-0.671875 0 -0.875 -0.140625q-0.453125 -0.296875 -0.453125 -0.8125q0 -0.421875 0.296875 -0.6875q0.296875 -0.265625 0.96875 -0.265625l2.578125 0q0.671875 0 0.96875 0.265625q0.296875 0.265625 0.296875 0.6875q0 0.421875 -0.296875 0.6875q-0.28125 0.265625 -0.96875 0.265625l-0.453125 0l2.75 6.5625zm11.883118 -9.25l0 2.015625l-2.265625 0l0 -2.015625l2.265625 0zm0.25 3.609375l0 6.515625l2.28125 0q0.6875 0 0.984375 0.265625q0.296875 0.265625 0.296875 0.6875q0 0.421875 -0.296875 0.6875q-0.296875 0.265625 -0.984375 0.265625l-6.46875 0q-0.6875 0 -0.984375 -0.265625q-0.28125 -0.265625 -0.28125 -0.6875q0 -0.421875 0.28125 -0.6875q0.296875 -0.265625 0.984375 -0.265625l2.28125 0l0 -4.609375l-1.53125 0q-0.671875 0 -0.96875 -0.265625q-0.296875 -0.265625 -0.296875 -0.703125q0 -0.40625 0.296875 -0.671875q0.296875 -0.265625 0.96875 -0.265625l3.4375 0zm15.023682 5.171875l-7.796875 0q0.296875 0.75 1.046875 1.203125q0.765625 0.453125 2.046875 0.453125q1.0625 0 2.8125 -0.453125q0.734375 -0.1875 1.0 -0.1875q0.390625 0 0.640625 0.265625q0.265625 0.265625 0.265625 0.671875q0 0.375 -0.28125 0.640625q-0.375 0.34375 -1.8125 0.65625q-1.4375 0.3125 -2.765625 0.3125q-2.28125 0 -3.65625 -1.28125q-1.359375 -1.296875 -1.359375 -3.1875q0 -2.0 1.484375 -3.25q1.484375 -1.265625 3.40625 -1.265625q1.15625 0 2.125 0.40625q0.96875 0.40625 1.453125 0.875q0.65625 0.6875 1.09375 1.703125q0.296875 0.703125 0.296875 1.640625l0 0.796875zm-2.09375 -1.90625q-0.4375 -0.8125 -1.15625 -1.203125q-0.703125 -0.40625 -1.671875 -0.40625q-0.96875 0 -1.671875 0.40625q-0.703125 0.390625 -1.140625 1.203125l5.640625 0zm8.539307 1.65625l-1.328125 3.5l-1.78125 0l-1.59375 -6.515625q-0.53125 -0.03125 -0.796875 -0.296875q-0.25 -0.265625 -0.25 -0.671875q0 -0.40625 0.28125 -0.671875q0.296875 -0.265625 0.984375 -0.265625l1.765625 0q0.6875 0 0.984375 0.265625q0.296875 0.265625 0.296875 0.6875q0 0.421875 -0.34375 0.71875q-0.25 0.234375 -0.984375 0.234375l0.734375 3.015625l1.171875 -3.09375l1.6875 0l1.1875 3.09375l0.75 -3.015625q-0.703125 0 -0.9375 -0.140625q-0.4375 -0.296875 -0.4375 -0.828125q0 -0.40625 0.28125 -0.671875q0.296875 -0.265625 0.984375 -0.265625l1.796875 0q0.6875 0 0.96875 0.265625q0.296875 0.265625 0.296875 0.6875q0 0.375 -0.265625 0.640625q-0.25 0.265625 -0.75 0.3125l-1.546875 6.515625l-1.765625 0l-1.390625 -3.5zm18.484924 1.59375l0 -7.4375l-0.296875 0q-0.6875 0 -0.984375 -0.265625q-0.28125 -0.265625 -0.28125 -0.6875q0 -0.421875 0.28125 -0.6875q0.296875 -0.265625 0.984375 -0.265625l4.78125 0q1.703125 0 2.734375 0.953125q1.046875 0.9375 1.046875 2.25q0 0.625 -0.25 1.171875q-0.234375 0.546875 -0.734375 1.015625q0.90625 0.53125 1.359375 1.25q0.453125 0.71875 0.453125 1.625q0 0.734375 -0.328125 1.34375q-0.25 0.484375 -0.59375 0.765625q-0.46875 0.390625 -1.15625 0.640625q-0.6875 0.234375 -1.71875 0.234375l-5.59375 0q-0.6875 0 -0.984375 -0.265625q-0.28125 -0.265625 -0.28125 -0.6875q0 -0.421875 0.296875 -0.6875q0.296875 -0.265625 0.96875 -0.265625l0.296875 0zm1.90625 -4.671875l2.09375 0q1.125 0 1.859375 -0.5625q0.5 -0.390625 0.5 -0.953125q0 -0.5 -0.46875 -0.875q-0.46875 -0.375 -1.5 -0.375l-2.484375 0l0 2.765625zm0 4.671875l3.28125 0q1.171875 0 1.640625 -0.34375q0.359375 -0.25 0.359375 -0.734375q0 -0.578125 -0.71875 -1.125q-0.703125 -0.5625 -2.046875 -0.5625l-2.515625 0l0 2.765625z" fill-rule="nonzero"></path><path fill="#fce5cd" d="m589.1155 144.445l0 0c0 -3.6355896 2.9472046 -6.5828094 6.5828247 -6.5828094l139.18085 0c1.7458496 0 3.420227 0.6935425 4.654724 1.9280548c1.2344971 1.2345276 1.9280396 2.9088898 1.9280396 4.6547546l0 26.330444c0 3.6355896 -2.9472046 6.5828094 -6.5827637 6.5828094l-139.18085 0c-3.63562 0 -6.5828247 -2.9472198 -6.5828247 -6.5828094z" fill-rule="evenodd"></path><path stroke="#676767" stroke-width="1.0" stroke-linejoin="round" stroke-linecap="butt" d="m589.1155 144.445l0 0c0 -3.6355896 2.9472046 -6.5828094 6.5828247 -6.5828094l139.18085 0c1.7458496 0 3.420227 0.6935425 4.654724 1.9280548c1.2344971 1.2345276 1.9280396 2.9088898 1.9280396 4.6547546l0 26.330444c0 3.6355896 -2.9472046 6.5828094 -6.5827637 6.5828094l-139.18085 0c-3.63562 0 -6.5828247 -2.9472198 -6.5828247 -6.5828094z" fill-rule="evenodd"></path><path fill="#000000" d="m637.4051 161.74898l2.75 -6.5625l-0.4375 0q-0.6875 0 -0.984375 -0.265625q-0.28125 -0.265625 -0.28125 -0.6875q0 -0.421875 0.28125 -0.6875q0.296875 -0.265625 0.984375 -0.265625l2.546875 0q0.6875 0 0.984375 0.265625q0.296875 0.265625 0.296875 0.6875q0 0.515625 -0.453125 0.8125q-0.21875 0.140625 -0.875 0.140625l-3.90625 9.34375l-1.828125 0l-3.890625 -9.34375q-0.671875 0 -0.875 -0.140625q-0.453125 -0.296875 -0.453125 -0.8125q0 -0.421875 0.296875 -0.6875q0.296875 -0.265625 0.96875 -0.265625l2.578125 0q0.671875 0 0.96875 0.265625q0.296875 0.265625 0.296875 0.6875q0 0.421875 -0.296875 0.6875q-0.28125 0.265625 -0.96875 0.265625l-0.453125 0l2.75 6.5625zm11.883118 -9.25l0 2.015625l-2.265625 0l0 -2.015625l2.265625 0zm0.25 3.609375l0 6.515625l2.28125 0q0.6875 0 0.984375 0.265625q0.296875 0.265625 0.296875 0.6875q0 0.421875 -0.296875 0.6875q-0.296875 0.265625 -0.984375 0.265625l-6.46875 0q-0.6875 0 -0.984375 -0.265625q-0.28125 -0.265625 -0.28125 -0.6875q0 -0.421875 0.28125 -0.6875q0.296875 -0.265625 0.984375 -0.265625l2.28125 0l0 -4.609375l-1.53125 0q-0.671875 0 -0.96875 -0.265625q-0.296875 -0.265625 -0.296875 -0.703125q0 -0.40625 0.296875 -0.671875q0.296875 -0.265625 0.96875 -0.265625l3.4375 0zm15.023682 5.171875l-7.796875 0q0.296875 0.75 1.046875 1.203125q0.765625 0.453125 2.046875 0.453125q1.0625 0 2.8125 -0.453125q0.734375 -0.1875 1.0 -0.1875q0.390625 0 0.640625 0.265625q0.265625 0.265625 0.265625 0.671875q0 0.375 -0.28125 0.640625q-0.375 0.34375 -1.8125 0.65625q-1.4375 0.3125 -2.765625 0.3125q-2.28125 0 -3.65625 -1.28125q-1.359375 -1.296875 -1.359375 -3.1875q0 -2.0 1.484375 -3.25q1.484375 -1.265625 3.40625 -1.265625q1.15625 0 2.125 0.40625q0.96875 0.40625 1.453125 0.875q0.65625 0.6875 1.09375 1.703125q0.296875 0.703125 0.296875 1.640625l0 0.796875zm-2.09375 -1.90625q-0.4375 -0.8125 -1.15625 -1.203125q-0.703125 -0.40625 -1.671875 -0.40625q-0.96875 0 -1.671875 0.40625q-0.703125 0.390625 -1.140625 1.203125l5.640625 0zm8.539307 1.65625l-1.328125 3.5l-1.78125 0l-1.59375 -6.515625q-0.53125 -0.03125 -0.796875 -0.296875q-0.25 -0.265625 -0.25 -0.671875q0 -0.40625 0.28125 -0.671875q0.296875 -0.265625 0.984375 -0.265625l1.765625 0q0.6875 0 0.984375 0.265625q0.296875 0.265625 0.296875 0.6875q0 0.421875 -0.34375 0.71875q-0.25 0.234375 -0.984375 0.234375l0.734375 3.015625l1.171875 -3.09375l1.6875 0l1.1875 3.09375l0.75 -3.015625q-0.703125 0 -0.9375 -0.140625q-0.4375 -0.296875 -0.4375 -0.828125q0 -0.40625 0.28125 -0.671875q0.296875 -0.265625 0.984375 -0.265625l1.796875 0q0.6875 0 0.96875 0.265625q0.296875 0.265625 0.296875 0.6875q0 0.375 -0.265625 0.640625q-0.25 0.265625 -0.75 0.3125l-1.546875 6.515625l-1.765625 0l-1.390625 -3.5zm25.359924 -7.265625q0.171875 -0.234375 0.375 -0.359375q0.21875 -0.125 0.453125 -0.125q0.421875 0 0.6875 0.296875q0.265625 0.28125 0.265625 0.96875l0 1.609375q0 0.6875 -0.265625 0.984375q-0.265625 0.296875 -0.6875 0.296875q-0.375 0 -0.609375 -0.21875q-0.234375 -0.21875 -0.34375 -0.796875q-0.0625 -0.390625 -0.265625 -0.609375q-0.375 -0.40625 -1.0625 -0.65625q-0.671875 -0.25 -1.359375 -0.25q-0.859375 0 -1.578125 0.375q-0.703125 0.359375 -1.25 1.203125q-0.546875 0.828125 -0.546875 1.984375l0 1.234375q0 1.375 0.984375 2.296875q1.0 0.90625 2.78125 0.90625q1.046875 0 1.78125 -0.28125q0.4375 -0.171875 0.921875 -0.65625q0.296875 -0.296875 0.453125 -0.390625q0.171875 -0.09375 0.390625 -0.09375q0.375 0 0.65625 0.296875q0.296875 0.28125 0.296875 0.671875q0 0.390625 -0.390625 0.828125q-0.5625 0.65625 -1.453125 1.03125q-1.203125 0.5 -2.65625 0.5q-1.6875 0 -3.03125 -0.703125q-1.09375 -0.546875 -1.875 -1.75q-0.765625 -1.203125 -0.765625 -2.625l0 -1.296875q0 -1.484375 0.6875 -2.765625q0.6875 -1.28125 1.90625 -1.96875q1.234375 -0.703125 2.609375 -0.703125q0.828125 0 1.546875 0.1875q0.71875 0.1875 1.34375 0.578125z" fill-rule="nonzero"></path><path fill="#fff2cc" d="m4.2362204 -63.459133l0 0c0 -5.0909767 4.1270533 -9.218029 9.218032 -9.218029l121.311966 0c2.4447784 0 4.7894135 0.97117615 6.5181274 2.6998978c1.7287292 1.728714 2.6999054 4.0733566 2.6999054 6.5181313l0 36.871025c0 5.0909786 -4.12706 9.218031 -9.218033 9.218031l-121.311966 0l0 0c-5.0909786 0 -9.218032 -4.1270523 -9.218032 -9.218031z" fill-rule="evenodd"></path><path stroke="#676767" stroke-width="1.0" stroke-linejoin="round" stroke-linecap="butt" d="m4.2362204 -63.459133l0 0c0 -5.0909767 4.1270533 -9.218029 9.218032 -9.218029l121.311966 0c2.4447784 0 4.7894135 0.97117615 6.5181274 2.6998978c1.7287292 1.728714 2.6999054 4.0733566 2.6999054 6.5181313l0 36.871025c0 5.0909786 -4.12706 9.218031 -9.218033 9.218031l-121.311966 0l0 0c-5.0909786 0 -9.218032 -4.1270523 -9.218032 -9.218031z" fill-rule="evenodd"></path><path fill="#000000" d="m48.554768 -41.166122l-4.625 0l-0.46875 1.15625l0.46875 0q0.6875 0 0.96875 0.265625q0.296875 0.265625 0.296875 0.6875q0 0.421875 -0.296875 0.6875q-0.28125 0.265625 -0.96875 0.265625l-2.5625 0q-0.6875 0 -0.96875 -0.265625q-0.296875 -0.265625 -0.296875 -0.6875q0 -0.421875 0.3125 -0.6875q0.296875 -0.28125 1.0 -0.265625l2.984375 -7.4375l-1.234375 0q-0.6875 0 -0.984375 -0.265625q-0.296875 -0.265625 -0.296875 -0.6875q0 -0.421875 0.296875 -0.6875q0.296875 -0.265625 0.984375 -0.265625l4.109375 0l3.78125 9.34375q0.671875 0 0.875 0.15625q0.4375 0.296875 0.4375 0.796875q0 0.421875 -0.296875 0.6875q-0.28125 0.265625 -0.96875 0.265625l-2.5625 0q-0.6875 0 -0.984375 -0.265625q-0.28125 -0.265625 -0.28125 -0.6875q0 -0.421875 0.28125 -0.6875q0.296875 -0.265625 0.984375 -0.265625l0.46875 0l-0.453125 -1.15625zm-0.796875 -1.90625l-1.53125 -3.765625l-1.53125 3.765625l3.0625 0zm12.633072 -3.109375q0.34375 -0.328125 0.703125 -0.328125q0.40625 0 0.671875 0.296875q0.265625 0.28125 0.265625 0.96875l0 1.21875q0 0.6875 -0.265625 0.984375q-0.265625 0.28125 -0.6875 0.28125q-0.390625 0 -0.671875 -0.21875q-0.1875 -0.171875 -0.296875 -0.6875q-0.109375 -0.515625 -0.546875 -0.765625q-0.75 -0.4375 -1.921875 -0.4375q-1.34375 0 -2.15625 0.78125q-0.8125 0.78125 -0.8125 2.0q0 1.109375 0.78125 1.75q0.78125 0.640625 2.59375 0.640625q1.1875 0 1.9375 -0.234375q0.453125 -0.140625 0.84375 -0.5q0.40625 -0.359375 0.71875 -0.359375q0.390625 0 0.671875 0.296875q0.296875 0.28125 0.296875 0.671875q0 0.625 -0.875 1.1875q-1.28125 0.84375 -3.75 0.84375q-2.203125 0 -3.4375 -0.921875q-1.671875 -1.234375 -1.671875 -3.375q0 -2.03125 1.34375 -3.359375q1.359375 -1.328125 3.546875 -1.328125q0.78125 0 1.453125 0.15625q0.6875 0.140625 1.265625 0.4375zm7.7580757 1.5625l0 3.8125q0 0.609375 0.25 0.796875q0.390625 0.3125 1.390625 0.3125q1.453125 0 2.6875 -0.625q0.46875 -0.234375 0.75 -0.234375q0.359375 0 0.625 0.28125q0.28125 0.265625 0.28125 0.671875q0 0.375 -0.296875 0.640625q-0.453125 0.4375 -1.796875 0.8125q-1.328125 0.359375 -2.25 0.359375q-1.765625 0 -2.65625 -0.765625q-0.890625 -0.765625 -0.890625 -1.890625l0 -4.171875l-0.6875 0q-0.6875 0 -0.984375 -0.265625q-0.28125 -0.265625 -0.28125 -0.703125q0 -0.40625 0.28125 -0.671875q0.296875 -0.265625 0.984375 -0.265625l0.6875 0l0 -1.71875q0 -0.6875 0.265625 -0.96875q0.265625 -0.296875 0.6875 -0.296875q0.421875 0 0.6875 0.296875q0.265625 0.28125 0.265625 0.96875l0 1.71875l3.515625 0q0.6875 0 0.96875 0.265625q0.296875 0.265625 0.296875 0.6875q0 0.421875 -0.296875 0.6875q-0.28125 0.265625 -0.96875 0.265625l-3.515625 0zm12.351822 -5.515625l0 2.015625l-2.265625 0l0 -2.015625l2.265625 0zm0.25 3.609375l0 6.515625l2.28125 0q0.6875 0 0.984375 0.265625q0.296875 0.265625 0.296875 0.6875q0 0.421875 -0.296875 0.6875q-0.296875 0.265625 -0.984375 0.265625l-6.46875 0q-0.6875 0 -0.984375 -0.265625q-0.28125 -0.265625 -0.28125 -0.6875q0 -0.421875 0.28125 -0.6875q0.296875 -0.265625 0.984375 -0.265625l2.28125 0l0 -4.609375l-1.53125 0q-0.671875 0 -0.96875 -0.265625q-0.296875 -0.265625 -0.296875 -0.703125q0 -0.40625 0.296875 -0.671875q0.296875 -0.265625 0.96875 -0.265625l3.4375 0zm15.195572 4.375q0 1.09375 -0.609375 2.125q-0.609375 1.015625 -1.8125 1.625q-1.203125 0.609375 -2.5 0.609375q-1.296875 0 -2.484375 -0.59375q-1.1875 -0.609375 -1.8125 -1.640625q-0.625 -1.03125 -0.625 -2.15625q0 -1.140625 0.625 -2.234375q0.640625 -1.09375 1.8125 -1.71875q1.1875 -0.640625 2.484375 -0.640625q1.296875 0 2.5 0.640625q1.203125 0.640625 1.8125 1.734375q0.609375 1.09375 0.609375 2.25zm-1.90625 0q0 -0.921875 -0.65625 -1.6875q-0.890625 -1.03125 -2.359375 -1.03125q-1.296875 0 -2.15625 0.828125q-0.859375 0.8125 -0.859375 1.90625q0 0.890625 0.859375 1.671875q0.875 0.765625 2.15625 0.765625q1.28125 0 2.140625 -0.765625q0.875 -0.78125 0.875 -1.6875zm6.242447 -4.375l0 0.640625q0.515625 -0.453125 1.140625 -0.671875q0.625 -0.21875 1.359375 -0.21875q1.6875 0 2.671875 1.046875q0.78125 0.828125 0.78125 2.1875l0 3.53125q0.59375 0 0.875 0.265625q0.296875 0.265625 0.296875 0.6875q0 0.421875 -0.296875 0.6875q-0.28125 0.265625 -0.96875 0.265625l-1.71875 0q-0.6875 0 -0.984375 -0.265625q-0.28125 -0.265625 -0.28125 -0.6875q0 -0.421875 0.28125 -0.6875q0.296875 -0.265625 0.890625 -0.265625l0 -3.59375q0 -0.609375 -0.328125 -0.90625q-0.4375 -0.359375 -1.3125 -0.359375q-0.65625 0 -1.15625 0.25q-0.5 0.25 -1.25 1.078125l0 3.53125q0.734375 0 0.9375 0.140625q0.453125 0.28125 0.453125 0.8125q0 0.421875 -0.296875 0.6875q-0.28125 0.265625 -0.96875 0.265625l-2.15625 0q-0.6875 0 -0.984375 -0.265625q-0.296875 -0.265625 -0.296875 -0.6875q0 -0.515625 0.453125 -0.8125q0.21875 -0.140625 0.953125 -0.140625l0 -4.609375q-0.609375 0 -0.890625 -0.265625q-0.28125 -0.28125 -0.28125 -0.703125q0 -0.40625 0.28125 -0.671875q0.296875 -0.265625 0.984375 -0.265625l1.8125 0z" fill-rule="nonzero"></path><path fill="#000000" fill-opacity="0.0" d="m143.98425 -45.02362l45.826767 0" fill-rule="evenodd"></path><path stroke="#ffd966" stroke-width="2.0" stroke-linejoin="round" stroke-linecap="butt" d="m143.98425 -45.02362l33.826767 0" fill-rule="evenodd"></path><path fill="#ffd966" stroke="#ffd966" stroke-width="2.0" stroke-linecap="butt" d="m177.81102 -41.720158l9.076202 -3.303463l-9.076202 -3.3034668z" fill-rule="evenodd"></path><path fill="#d0e0e3" d="m189.81102 -63.459133l0 0c0 -5.0909767 4.12706 -9.218029 9.218033 -9.218029l121.31198 0c2.4447632 0 4.789398 0.97117615 6.5181274 2.6998978c1.7286987 1.728714 2.6998901 4.0733566 2.6998901 6.5181313l0 36.871025c0 5.0909786 -4.1270447 9.218031 -9.218018 9.218031l-121.31198 0l0 0c-5.090973 0 -9.218033 -4.1270523 -9.218033 -9.218031z" fill-rule="evenodd"></path><path stroke="#676767" stroke-width="1.0" stroke-linejoin="round" stroke-linecap="butt" d="m189.81102 -63.459133l0 0c0 -5.0909767 4.12706 -9.218029 9.218033 -9.218029l121.31198 0c2.4447632 0 4.789398 0.97117615 6.5181274 2.6998978c1.7286987 1.728714 2.6998901 4.0733566 2.6998901 6.5181313l0 36.871025c0 5.0909786 -4.1270447 9.218031 -9.218018 9.218031l-121.31198 0l0 0c-5.090973 0 -9.218033 -4.1270523 -9.218033 -9.218031z" fill-rule="evenodd"></path><path fill="#000000" d="m205.16031 -40.009872l0 -7.4375q-0.609375 -0.015625 -0.90625 -0.265625q-0.28125 -0.265625 -0.28125 -0.6875q0 -0.421875 0.296875 -0.6875q0.296875 -0.265625 0.984375 -0.265625l3.96875 0q0.9375 0 1.8125 0.34375q0.890625 0.34375 1.4375 0.875q0.40625 0.40625 0.84375 1.109375q0.4375 0.6875 0.65625 1.375q0.234375 0.6875 0.234375 1.671875l0 0.90625q0 1.21875 -0.421875 2.15625q-0.40625 0.921875 -1.078125 1.515625q-0.65625 0.578125 -1.234375 0.859375q-0.921875 0.4375 -2.40625 0.4375l-3.8125 0q-0.6875 0 -0.984375 -0.265625q-0.296875 -0.265625 -0.296875 -0.6875q0 -0.421875 0.296875 -0.6875q0.296875 -0.265625 0.890625 -0.265625zm1.890625 0l2.03125 0q1.125 0 1.703125 -0.328125q0.75 -0.421875 1.125 -1.078125q0.390625 -0.65625 0.390625 -1.703125l0 -0.90625q0 -0.890625 -0.34375 -1.578125q-0.546875 -1.046875 -1.21875 -1.4375q-0.671875 -0.40625 -1.671875 -0.40625l-2.015625 0l0 7.4375zm14.242447 -10.125l0 2.015625l-2.265625 0l0 -2.015625l2.265625 0zm0.25 3.609375l0 6.515625l2.28125 0q0.6875 0 0.984375 0.265625q0.296875 0.265625 0.296875 0.6875q0 0.421875 -0.296875 0.6875q-0.296875 0.265625 -0.984375 0.265625l-6.46875 0q-0.6875 0 -0.984375 -0.265625q-0.28125 -0.265625 -0.28125 -0.6875q0 -0.421875 0.28125 -0.6875q0.296875 -0.265625 0.984375 -0.265625l2.28125 0l0 -4.609375l-1.53125 0q-0.671875 0 -0.96875 -0.265625q-0.296875 -0.265625 -0.296875 -0.703125q0 -0.40625 0.296875 -0.671875q0.296875 -0.265625 0.96875 -0.265625l3.4375 0zm12.304947 2.21875q-0.453125 -0.28125 -0.96875 -0.421875q-0.515625 -0.140625 -1.0625 -0.140625q-1.109375 0 -1.75 0.359375q-0.296875 0.15625 -0.296875 0.34375q0 0.203125 0.390625 0.40625q0.296875 0.15625 1.328125 0.296875q1.890625 0.25 2.640625 0.515625q0.96875 0.34375 1.5 1.03125q0.53125 0.671875 0.53125 1.421875q0 1.015625 -0.90625 1.703125q-1.28125 1.0 -3.34375 1.0q-0.828125 0 -1.53125 -0.15625q-0.703125 -0.140625 -1.28125 -0.421875q-0.140625 0.125 -0.296875 0.1875q-0.15625 0.0625 -0.328125 0.0625q-0.4375 0 -0.703125 -0.28125q-0.265625 -0.296875 -0.265625 -0.984375l0 -0.640625q0 -0.6875 0.265625 -0.96875q0.265625 -0.296875 0.6875 -0.296875q0.34375 0 0.5625 0.1875q0.234375 0.1875 0.375 0.65625q0.4375 0.375 1.046875 0.5625q0.609375 0.1875 1.40625 0.1875q1.3125 0 2.03125 -0.40625q0.34375 -0.203125 0.34375 -0.4375q0 -0.359375 -0.484375 -0.609375q-0.5 -0.234375 -2.03125 -0.40625q-2.296875 -0.234375 -3.0625 -0.921875q-0.78125 -0.6875 -0.78125 -1.671875q0 -1.015625 0.875 -1.703125q1.15625 -0.921875 3.0625 -0.921875q0.65625 0 1.265625 0.125q0.609375 0.125 1.15625 0.375q0.171875 -0.125 0.328125 -0.1875q0.15625 -0.0625 0.28125 -0.0625q0.390625 0 0.65625 0.296875q0.265625 0.28125 0.265625 0.96875l0 0.46875q0 0.625 -0.15625 0.84375q-0.296875 0.421875 -0.8125 0.421875q-0.34375 0 -0.609375 -0.203125q-0.25 -0.21875 -0.328125 -0.578125zm6.789322 5.15625l0 3.109375l1.140625 0q0.6875 0 0.96875 0.265625q0.296875 0.265625 0.296875 0.703125q0 0.40625 -0.296875 0.671875q-0.28125 0.265625 -0.96875 0.265625l-3.375 0q-0.6875 0 -0.984375 -0.265625q-0.28125 -0.265625 -0.28125 -0.671875q0 -0.4375 0.296875 -0.703125q0.296875 -0.265625 0.96875 -0.265625l0.328125 0l0 -8.578125l-0.328125 0q-0.6875 0 -0.984375 -0.265625q-0.28125 -0.265625 -0.28125 -0.703125q0 -0.40625 0.28125 -0.671875q0.296875 -0.265625 0.984375 -0.265625l2.234375 0l0 0.640625q0.671875 -0.453125 1.375 -0.671875q0.71875 -0.21875 1.46875 -0.21875q1.953125 0 3.3125 1.328125q1.375 1.3125 1.375 3.015625q0 1.890625 -1.609375 3.109375q-1.359375 1.03125 -3.0625 1.03125q-0.734375 0 -1.453125 -0.21875q-0.703125 -0.21875 -1.40625 -0.640625zm5.640625 -3.265625q0 -0.40625 -0.328125 -1.015625q-0.3125 -0.625 -0.96875 -1.03125q-0.640625 -0.40625 -1.53125 -0.40625q-1.421875 0 -2.25 1.0625q-0.5625 0.734375 -0.5625 1.40625q0 0.765625 0.8125 1.484375q0.8125 0.71875 2.0 0.71875q1.203125 0 2.015625 -0.71875q0.8125 -0.71875 0.8125 -1.5zm9.617447 4.3125l0 -0.453125q-0.703125 0.390625 -1.578125 0.578125q-0.859375 0.1875 -1.5625 0.1875q-1.53125 0 -2.484375 -0.8125q-0.953125 -0.8125 -0.953125 -1.796875q0 -1.1875 1.21875 -2.203125q1.21875 -1.03125 3.375 -1.03125q0.859375 0 1.984375 0.171875l0 -0.453125q0 -0.421875 -0.359375 -0.6875q-0.359375 -0.265625 -1.390625 -0.265625q-0.84375 0 -2.203125 0.328125q-0.5 0.125 -0.765625 0.125q-0.390625 0 -0.65625 -0.265625q-0.265625 -0.28125 -0.265625 -0.71875q0 -0.234375 0.09375 -0.40625q0.09375 -0.1875 0.265625 -0.28125q0.171875 -0.109375 0.703125 -0.265625q0.703125 -0.1875 1.421875 -0.296875q0.734375 -0.125 1.328125 -0.125q1.78125 0 2.75 0.765625q0.984375 0.765625 0.984375 2.09375l0 3.90625l0.328125 0q0.6875 0 0.96875 0.265625q0.296875 0.265625 0.296875 0.6875q0 0.421875 -0.296875 0.6875q-0.28125 0.265625 -0.96875 0.265625l-2.234375 0zm0 -3.40625q-1.140625 -0.21875 -2.09375 -0.21875q-1.171875 0 -2.0 0.5625q-0.515625 0.359375 -0.515625 0.734375q0 0.265625 0.25 0.4375q0.453125 0.296875 1.265625 0.296875q0.6875 0 1.546875 -0.265625q0.875 -0.265625 1.546875 -0.734375l0 -0.8125zm9.023682 -3.109375l0 3.8125q0 0.609375 0.25 0.796875q0.390625 0.3125 1.390625 0.3125q1.453125 0 2.6875 -0.625q0.46875 -0.234375 0.75 -0.234375q0.359375 0 0.625 0.28125q0.28125 0.265625 0.28125 0.671875q0 0.375 -0.296875 0.640625q-0.453125 0.4375 -1.796875 0.8125q-1.328125 0.359375 -2.25 0.359375q-1.765625 0 -2.65625 -0.765625q-0.890625 -0.765625 -0.890625 -1.890625l0 -4.171875l-0.6875 0q-0.6875 0 -0.984375 -0.265625q-0.28125 -0.265625 -0.28125 -0.703125q0 -0.40625 0.28125 -0.671875q0.296875 -0.265625 0.984375 -0.265625l0.6875 0l0 -1.71875q0 -0.6875 0.265625 -0.96875q0.265625 -0.296875 0.6875 -0.296875q0.421875 0 0.6875 0.296875q0.265625 0.28125 0.265625 0.96875l0 1.71875l3.515625 0q0.6875 0 0.96875 0.265625q0.296875 0.265625 0.296875 0.6875q0 0.421875 -0.296875 0.6875q-0.28125 0.265625 -0.96875 0.265625l-3.515625 0zm14.633087 -1.5625q0.34375 -0.328125 0.703125 -0.328125q0.40625 0 0.671875 0.296875q0.265625 0.28125 0.265625 0.96875l0 1.21875q0 0.6875 -0.265625 0.984375q-0.265625 0.28125 -0.6875 0.28125q-0.390625 0 -0.671875 -0.21875q-0.1875 -0.171875 -0.296875 -0.6875q-0.109375 -0.515625 -0.546875 -0.765625q-0.75 -0.4375 -1.921875 -0.4375q-1.34375 0 -2.15625 0.78125q-0.8125 0.78125 -0.8125 2.0q0 1.109375 0.78125 1.75q0.78125 0.640625 2.59375 0.640625q1.1875 0 1.9375 -0.234375q0.453125 -0.140625 0.84375 -0.5q0.40625 -0.359375 0.71875 -0.359375q0.390625 0 0.671875 0.296875q0.296875 0.28125 0.296875 0.671875q0 0.625 -0.875 1.1875q-1.28125 0.84375 -3.75 0.84375q-2.203125 0 -3.4375 -0.921875q-1.671875 -1.234375 -1.671875 -3.375q0 -2.03125 1.34375 -3.359375q1.359375 -1.328125 3.546875 -1.328125q0.78125 0 1.453125 0.15625q0.6875 0.140625 1.265625 0.4375zm6.2580566 -3.953125l0 4.046875q0.59375 -0.34375 1.203125 -0.515625q0.609375 -0.171875 1.234375 -0.171875q0.984375 0 1.75 0.34375q0.765625 0.328125 1.265625 1.046875q0.515625 0.71875 0.515625 1.8125l0 3.5625q0.71875 0 0.953125 0.140625q0.4375 0.296875 0.4375 0.8125q0 0.421875 -0.296875 0.6875q-0.28125 0.265625 -0.96875 0.265625l-2.171875 0q-0.671875 0 -0.96875 -0.265625q-0.28125 -0.265625 -0.28125 -0.6875q0 -0.515625 0.4375 -0.8125q0.234375 -0.140625 0.953125 -0.140625l0 -3.4375q0 -0.734375 -0.34375 -1.03125q-0.4375 -0.390625 -1.28125 -0.390625q-0.640625 0 -1.125 0.25q-0.484375 0.234375 -1.3125 1.046875l0 3.5625q0.734375 0 0.953125 0.140625q0.453125 0.296875 0.453125 0.8125q0 0.421875 -0.296875 0.6875q-0.28125 0.265625 -0.96875 0.265625l-2.171875 0q-0.6875 0 -0.984375 -0.265625q-0.28125 -0.265625 -0.28125 -0.6875q0 -0.515625 0.453125 -0.8125q0.21875 -0.140625 0.953125 -0.140625l0 -8.21875l-0.328125 0q-0.6875 0 -0.984375 -0.265625q-0.296875 -0.265625 -0.296875 -0.703125q0 -0.40625 0.296875 -0.671875q0.296875 -0.265625 0.984375 -0.265625l2.21875 0zm17.929962 8.78125l-7.796875 0q0.296875 0.75 1.046875 1.203125q0.765625 0.453125 2.046875 0.453125q1.0625 0 2.8125 -0.453125q0.734375 -0.1875 1.0 -0.1875q0.390625 0 0.640625 0.265625q0.265625 0.265625 0.265625 0.671875q0 0.375 -0.28125 0.640625q-0.375 0.34375 -1.8125 0.65625q-1.4375 0.3125 -2.765625 0.3125q-2.28125 0 -3.65625 -1.28125q-1.359375 -1.296875 -1.359375 -3.1875q0 -2.0 1.484375 -3.25q1.484375 -1.265625 3.40625 -1.265625q1.15625 0 2.125 0.40625q0.96875 0.40625 1.453125 0.875q0.65625 0.6875 1.09375 1.703125q0.296875 0.703125 0.296875 1.640625l0 0.796875zm-2.09375 -1.90625q-0.4375 -0.8125 -1.15625 -1.203125q-0.703125 -0.40625 -1.671875 -0.40625q-0.96875 0 -1.671875 0.40625q-0.703125 0.390625 -1.140625 1.203125l5.640625 0zm8.133057 -3.265625l0 1.1875q1.1875 -0.859375 1.875 -1.140625q0.703125 -0.296875 1.296875 -0.296875q0.9375 0 1.796875 0.6875q0.59375 0.453125 0.59375 0.9375q0 0.40625 -0.28125 0.703125q-0.28125 0.28125 -0.671875 0.28125q-0.359375 0 -0.75 -0.34375q-0.390625 -0.359375 -0.6875 -0.359375q-0.40625 0 -1.203125 0.5q-0.78125 0.5 -1.96875 1.5l0 2.859375l2.703125 0q0.6875 0 0.96875 0.265625q0.296875 0.265625 0.296875 0.6875q0 0.421875 -0.296875 0.6875q-0.28125 0.265625 -0.96875 0.265625l-5.75 0q-0.671875 0 -0.96875 -0.265625q-0.296875 -0.265625 -0.296875 -0.6875q0 -0.421875 0.296875 -0.6875q0.296875 -0.265625 0.96875 -0.265625l1.140625 0l0 -4.609375l-0.6875 0q-0.6875 0 -0.984375 -0.265625q-0.28125 -0.265625 -0.28125 -0.703125q0 -0.40625 0.28125 -0.671875q0.296875 -0.265625 0.984375 -0.265625l2.59375 0z" fill-rule="nonzero"></path><path fill="#000000" fill-opacity="0.0" d="m329.55905 -45.02362l45.826782 0" fill-rule="evenodd"></path><path stroke="#ffd966" stroke-width="2.0" stroke-linejoin="round" stroke-linecap="butt" d="m329.55905 -45.02362l33.826782 0" fill-rule="evenodd"></path><path fill="#ffd966" stroke="#ffd966" stroke-width="2.0" stroke-linecap="butt" d="m363.38583 -41.720158l9.076202 -3.303463l-9.076202 -3.3034668z" fill-rule="evenodd"></path><path fill="#cfe2f3" d="m375.38583 -63.459133l0 0c0 -5.0909767 4.1270447 -9.218029 9.218018 -9.218029l121.31198 0c2.4447632 0 4.789398 0.97117615 6.5181274 2.6998978c1.7286987 1.728714 2.6998901 4.0733566 2.6998901 6.5181313l0 36.871025c0 5.0909786 -4.1270447 9.218031 -9.218018 9.218031l-121.31198 0l0 0c-5.090973 0 -9.218018 -4.1270523 -9.218018 -9.218031z" fill-rule="evenodd"></path><path stroke="#676767" stroke-width="1.0" stroke-linejoin="round" stroke-linecap="butt" d="m375.38583 -63.459133l0 0c0 -5.0909767 4.1270447 -9.218029 9.218018 -9.218029l121.31198 0c2.4447632 0 4.789398 0.97117615 6.5181274 2.6998978c1.7286987 1.728714 2.6998901 4.0733566 2.6998901 6.5181313l0 36.871025c0 5.0909786 -4.1270447 9.218031 -9.218018 9.218031l-121.31198 0l0 0c-5.090973 0 -9.218018 -4.1270523 -9.218018 -9.218031z" fill-rule="evenodd"></path><path fill="#000000" d="m420.19278 -38.587997q-0.25 0.296875 -0.40625 0.390625q-0.15625 0.078125 -0.375 0.078125q-0.4375 0 -0.703125 -0.296875q-0.265625 -0.296875 -0.265625 -0.96875l0 -1.28125q0 -0.6875 0.265625 -0.96875q0.265625 -0.296875 0.703125 -0.296875q0.34375 0 0.5625 0.171875q0.234375 0.171875 0.34375 0.59375q0.125 0.40625 0.25 0.5625q0.28125 0.28125 0.953125 0.578125q0.6875 0.296875 1.515625 0.296875q1.265625 0 2.078125 -0.59375q0.53125 -0.359375 0.53125 -0.890625q0 -0.34375 -0.25 -0.65625q-0.25 -0.3125 -0.828125 -0.515625q-0.359375 -0.140625 -1.65625 -0.390625q-1.5625 -0.28125 -2.359375 -0.6875q-0.796875 -0.40625 -1.265625 -1.140625q-0.453125 -0.75 -0.453125 -1.625q0 -1.359375 1.140625 -2.375q1.140625 -1.03125 2.96875 -1.03125q0.734375 0 1.359375 0.171875q0.625 0.15625 1.140625 0.484375q0.359375 -0.359375 0.734375 -0.359375q0.421875 0 0.6875 0.296875q0.265625 0.28125 0.265625 0.96875l0 1.421875q0 0.6875 -0.265625 0.984375q-0.265625 0.28125 -0.6875 0.28125q-0.359375 0 -0.609375 -0.203125q-0.203125 -0.15625 -0.3125 -0.625q-0.09375 -0.484375 -0.25 -0.6875q-0.28125 -0.34375 -0.8125 -0.578125q-0.53125 -0.25 -1.25 -0.25q-1.03125 0 -1.625 0.484375q-0.59375 0.46875 -0.59375 0.984375q0 0.359375 0.234375 0.6875q0.25 0.328125 0.734375 0.515625q0.3125 0.125 1.765625 0.421875q1.46875 0.28125 2.25 0.625q0.78125 0.34375 1.296875 1.078125q0.53125 0.734375 0.53125 1.734375q0 1.421875 -1.0 2.265625q-1.3125 1.109375 -3.359375 1.109375q-0.78125 0 -1.53125 -0.203125q-0.75 -0.1875 -1.453125 -0.5625zm13.508087 -6.03125l0 3.8125q0 0.609375 0.25 0.796875q0.390625 0.3125 1.390625 0.3125q1.453125 0 2.6875 -0.625q0.46875 -0.234375 0.75 -0.234375q0.359375 0 0.625 0.28125q0.28125 0.265625 0.28125 0.671875q0 0.375 -0.296875 0.640625q-0.453125 0.4375 -1.796875 0.8125q-1.328125 0.359375 -2.25 0.359375q-1.765625 0 -2.65625 -0.765625q-0.890625 -0.765625 -0.890625 -1.890625l0 -4.171875l-0.6875 0q-0.6875 0 -0.984375 -0.265625q-0.28125 -0.265625 -0.28125 -0.703125q0 -0.40625 0.28125 -0.671875q0.296875 -0.265625 0.984375 -0.265625l0.6875 0l0 -1.71875q0 -0.6875 0.265625 -0.96875q0.265625 -0.296875 0.6875 -0.296875q0.421875 0 0.6875 0.296875q0.265625 0.28125 0.265625 0.96875l0 1.71875l3.515625 0q0.6875 0 0.96875 0.265625q0.296875 0.265625 0.296875 0.6875q0 0.421875 -0.296875 0.6875q-0.28125 0.265625 -0.96875 0.265625l-3.515625 0zm16.601807 2.46875q0 1.09375 -0.609375 2.125q-0.609375 1.015625 -1.8125 1.625q-1.203125 0.609375 -2.5 0.609375q-1.296875 0 -2.484375 -0.59375q-1.1875 -0.609375 -1.8125 -1.640625q-0.625 -1.03125 -0.625 -2.15625q0 -1.140625 0.625 -2.234375q0.640625 -1.09375 1.8125 -1.71875q1.1875 -0.640625 2.484375 -0.640625q1.296875 0 2.5 0.640625q1.203125 0.640625 1.8125 1.734375q0.609375 1.09375 0.609375 2.25zm-1.90625 0q0 -0.921875 -0.65625 -1.6875q-0.890625 -1.03125 -2.359375 -1.03125q-1.296875 0 -2.15625 0.828125q-0.859375 0.8125 -0.859375 1.90625q0 0.890625 0.859375 1.671875q0.875 0.765625 2.15625 0.765625q1.28125 0 2.140625 -0.765625q0.875 -0.78125 0.875 -1.6875zm7.773712 -4.375l0 1.1875q1.1875 -0.859375 1.875 -1.140625q0.703125 -0.296875 1.296875 -0.296875q0.9375 0 1.796875 0.6875q0.59375 0.453125 0.59375 0.9375q0 0.40625 -0.28125 0.703125q-0.28125 0.28125 -0.671875 0.28125q-0.359375 0 -0.75 -0.34375q-0.390625 -0.359375 -0.6875 -0.359375q-0.40625 0 -1.203125 0.5q-0.78125 0.5 -1.96875 1.5l0 2.859375l2.703125 0q0.6875 0 0.96875 0.265625q0.296875 0.265625 0.296875 0.6875q0 0.421875 -0.296875 0.6875q-0.28125 0.265625 -0.96875 0.265625l-5.75 0q-0.671875 0 -0.96875 -0.265625q-0.296875 -0.265625 -0.296875 -0.6875q0 -0.421875 0.296875 -0.6875q0.296875 -0.265625 0.96875 -0.265625l1.140625 0l0 -4.609375l-0.6875 0q-0.6875 0 -0.984375 -0.265625q-0.28125 -0.265625 -0.28125 -0.703125q0 -0.40625 0.28125 -0.671875q0.296875 -0.265625 0.984375 -0.265625l2.59375 0zm16.351807 5.171875l-7.796875 0q0.296875 0.75 1.046875 1.203125q0.765625 0.453125 2.046875 0.453125q1.0625 0 2.8125 -0.453125q0.734375 -0.1875 1.0 -0.1875q0.390625 0 0.640625 0.265625q0.265625 0.265625 0.265625 0.671875q0 0.375 -0.28125 0.640625q-0.375 0.34375 -1.8125 0.65625q-1.4375 0.3125 -2.765625 0.3125q-2.28125 0 -3.65625 -1.28125q-1.359375 -1.296875 -1.359375 -3.1875q0 -2.0 1.484375 -3.25q1.484375 -1.265625 3.40625 -1.265625q1.15625 0 2.125 0.40625q0.96875 0.40625 1.453125 0.875q0.65625 0.6875 1.09375 1.703125q0.296875 0.703125 0.296875 1.640625l0 0.796875zm-2.09375 -1.90625q-0.4375 -0.8125 -1.15625 -1.203125q-0.703125 -0.40625 -1.671875 -0.40625q-0.96875 0 -1.671875 0.40625q-0.703125 0.390625 -1.140625 1.203125l5.640625 0z" fill-rule="nonzero"></path><path fill="#000000" fill-opacity="0.0" d="m515.13385 -45.02362l45.826782 0" fill-rule="evenodd"></path><path stroke="#ffd966" stroke-width="2.0" stroke-linejoin="round" stroke-linecap="butt" d="m515.13385 -45.02362l33.826782 0" fill-rule="evenodd"></path><path fill="#ffd966" stroke="#ffd966" stroke-width="2.0" stroke-linecap="butt" d="m548.96063 -41.720158l9.076172 -3.303463l-9.076172 -3.3034668z" fill-rule="evenodd"></path><path fill="#fce5cd" d="m560.96063 -63.459133l0 0c0 -5.0909767 4.127075 -9.218029 9.218018 -9.218029l121.31195 0c2.4448242 0 4.7894287 0.97117615 6.5181885 2.6998978c1.7286987 1.728714 2.6998901 4.0733566 2.6998901 6.5181313l0 36.871025c0 5.0909786 -4.127075 9.218031 -9.218079 9.218031l-121.31195 0l0 0c-5.0909424 0 -9.218018 -4.1270523 -9.218018 -9.218031z" fill-rule="evenodd"></path><path stroke="#676767" stroke-width="1.0" stroke-linejoin="round" stroke-linecap="butt" d="m560.96063 -63.459133l0 0c0 -5.0909767 4.127075 -9.218029 9.218018 -9.218029l121.31195 0c2.4448242 0 4.7894287 0.97117615 6.5181885 2.6998978c1.7286987 1.728714 2.6998901 4.0733566 2.6998901 6.5181313l0 36.871025c0 5.0909786 -4.127075 9.218031 -9.218079 9.218031l-121.31195 0l0 0c-5.0909424 0 -9.218018 -4.1270523 -9.218018 -9.218031z" fill-rule="evenodd"></path><path fill="#000000" d="m614.1466 -40.884872l2.75 -6.5625l-0.4375 0q-0.6875 0 -0.984375 -0.265625q-0.28125 -0.265625 -0.28125 -0.6875q0 -0.421875 0.28125 -0.6875q0.296875 -0.265625 0.984375 -0.265625l2.546875 0q0.6875 0 0.984375 0.265625q0.296875 0.265625 0.296875 0.6875q0 0.515625 -0.453125 0.8125q-0.21875 0.140625 -0.875 0.140625l-3.90625 9.34375l-1.828125 0l-3.890625 -9.34375q-0.671875 0 -0.875 -0.140625q-0.453125 -0.296875 -0.453125 -0.8125q0 -0.421875 0.296875 -0.6875q0.296875 -0.265625 0.96875 -0.265625l2.578125 0q0.671875 0 0.96875 0.265625q0.296875 0.265625 0.296875 0.6875q0 0.421875 -0.296875 0.6875q-0.28125 0.265625 -0.96875 0.265625l-0.453125 0l2.75 6.5625zm11.883118 -9.25l0 2.015625l-2.265625 0l0 -2.015625l2.265625 0zm0.25 3.609375l0 6.515625l2.28125 0q0.6875 0 0.984375 0.265625q0.296875 0.265625 0.296875 0.6875q0 0.421875 -0.296875 0.6875q-0.296875 0.265625 -0.984375 0.265625l-6.46875 0q-0.6875 0 -0.984375 -0.265625q-0.28125 -0.265625 -0.28125 -0.6875q0 -0.421875 0.28125 -0.6875q0.296875 -0.265625 0.984375 -0.265625l2.28125 0l0 -4.609375l-1.53125 0q-0.671875 0 -0.96875 -0.265625q-0.296875 -0.265625 -0.296875 -0.703125q0 -0.40625 0.296875 -0.671875q0.296875 -0.265625 0.96875 -0.265625l3.4375 0zm15.023682 5.171875l-7.796875 0q0.296875 0.75 1.046875 1.203125q0.765625 0.453125 2.046875 0.453125q1.0625 0 2.8125 -0.453125q0.734375 -0.1875 1.0 -0.1875q0.390625 0 0.640625 0.265625q0.265625 0.265625 0.265625 0.671875q0 0.375 -0.28125 0.640625q-0.375 0.34375 -1.8125 0.65625q-1.4375 0.3125 -2.765625 0.3125q-2.28125 0 -3.65625 -1.28125q-1.359375 -1.296875 -1.359375 -3.1875q0 -2.0 1.484375 -3.25q1.484375 -1.265625 3.40625 -1.265625q1.15625 0 2.125 0.40625q0.96875 0.40625 1.453125 0.875q0.65625 0.6875 1.09375 1.703125q0.296875 0.703125 0.296875 1.640625l0 0.796875zm-2.09375 -1.90625q-0.4375 -0.8125 -1.15625 -1.203125q-0.703125 -0.40625 -1.671875 -0.40625q-0.96875 0 -1.671875 0.40625q-0.703125 0.390625 -1.140625 1.203125l5.640625 0zm8.539307 1.65625l-1.328125 3.5l-1.78125 0l-1.59375 -6.515625q-0.53125 -0.03125 -0.796875 -0.296875q-0.25 -0.265625 -0.25 -0.671875q0 -0.40625 0.28125 -0.671875q0.296875 -0.265625 0.984375 -0.265625l1.765625 0q0.6875 0 0.984375 0.265625q0.296875 0.265625 0.296875 0.6875q0 0.421875 -0.34375 0.71875q-0.25 0.234375 -0.984375 0.234375l0.734375 3.015625l1.171875 -3.09375l1.6875 0l1.1875 3.09375l0.75 -3.015625q-0.703125 0 -0.9375 -0.140625q-0.4375 -0.296875 -0.4375 -0.828125q0 -0.40625 0.28125 -0.671875q0.296875 -0.265625 0.984375 -0.265625l1.796875 0q0.6875 0 0.96875 0.265625q0.296875 0.265625 0.296875 0.6875q0 0.375 -0.265625 0.640625q-0.25 0.265625 -0.75 0.3125l-1.546875 6.515625l-1.765625 0l-1.390625 -3.5z" fill-rule="nonzero"></path></g></svg>

